<svg width="20" height="20" viewBox="0 0 20 20" fill="none" xmlns="http://www.w3.org/2000/svg">
<path fill-rule="evenodd" clip-rule="evenodd" d="M19.5984 10.0004C19.5984 15.3023 15.3004 19.6004 9.99844 19.6004C4.6965 19.6004 0.398438 15.3023 0.398438 10.0004C0.398438 4.69846 4.6965 0.400391 9.99844 0.400391C15.3004 0.400391 19.5984 4.69846 19.5984 10.0004ZM12.3984 6.40039C12.3984 7.72587 11.3239 8.80039 9.99844 8.80039C8.67295 8.80039 7.59844 7.72587 7.59844 6.40039C7.59844 5.07491 8.67295 4.00039 9.99844 4.00039C11.3239 4.00039 12.3984 5.07491 12.3984 6.40039ZM9.99835 11.2004C7.57731 11.2004 5.49117 12.6343 4.54292 14.6993C5.86327 16.2308 7.81762 17.2004 9.99842 17.2004C12.1792 17.2004 14.1335 16.2309 15.4538 14.6993C14.5056 12.6344 12.4194 11.2004 9.99835 11.2004Z" fill="#6B7280"/>
</svg>
