<svg width="44" height="44" viewBox="0 0 44 44" fill="none" xmlns="http://www.w3.org/2000/svg">
<rect width="44" height="44" rx="8" fill="#3AB44A"/>
<path fill-rule="evenodd" clip-rule="evenodd" d="M31.5984 22.0004C31.5984 27.3023 27.3004 31.6004 21.9984 31.6004C16.6965 31.6004 12.3984 27.3023 12.3984 22.0004C12.3984 16.6985 16.6965 12.4004 21.9984 12.4004C27.3004 12.4004 31.5984 16.6985 31.5984 22.0004ZM24.3984 18.4004C24.3984 19.7259 23.3239 20.8004 21.9984 20.8004C20.673 20.8004 19.5984 19.7259 19.5984 18.4004C19.5984 17.0749 20.673 16.0004 21.9984 16.0004C23.3239 16.0004 24.3984 17.0749 24.3984 18.4004ZM21.9984 23.2004C19.5773 23.2004 17.4912 24.6343 16.5429 26.6993C17.8633 28.2308 19.8176 29.2004 21.9984 29.2004C24.1792 29.2004 26.1335 28.2309 27.4538 26.6993C26.5056 24.6344 24.4194 23.2004 21.9984 23.2004Z" fill="white"/>
</svg>
