<svg width="70" height="70" viewBox="0 0 70 70" fill="none" xmlns="http://www.w3.org/2000/svg">
<circle cx="35" cy="35" r="35" fill="#F0FDF4"/>
<path d="M50 24.62C50.0013 23.7053 49.731 22.8109 49.2234 22.0499C48.7158 21.289 47.9938 20.6959 47.1489 20.3457C46.3039 19.9955 45.374 19.904 44.4769 20.0828C43.5799 20.2616 42.7561 20.7026 42.11 21.35L37.895 25.565L28.16 22.325C27.9008 22.2435 27.6244 22.234 27.3602 22.2974C27.096 22.3608 26.854 22.4948 26.66 22.685L23.09 26.225C22.9208 26.3961 22.7953 26.6054 22.7241 26.8352C22.6528 27.065 22.6379 27.3086 22.6805 27.5454C22.7232 27.7822 22.8222 28.0053 22.9691 28.1958C23.1161 28.3863 23.3068 28.5387 23.525 28.64L31.295 32.165L27.395 36.065L24.83 34.775C24.5531 34.6251 24.236 34.5662 23.9237 34.6066C23.6114 34.647 23.3197 34.7846 23.09 35L20.435 37.715C20.1556 37.996 19.9988 38.3762 19.9988 38.7725C19.9988 39.1688 20.1556 39.549 20.435 39.83L30.17 49.565C30.451 49.8444 30.8312 50.0012 31.2275 50.0012C31.6238 50.0012 32.004 49.8444 32.285 49.565L35 46.91C35.2251 46.6872 35.3739 46.3989 35.4251 46.0863C35.4763 45.7737 35.4273 45.453 35.285 45.17L33.995 42.605L37.895 38.705L41.42 46.475C41.5213 46.6932 41.6737 46.8839 41.8642 47.0309C42.0547 47.1778 42.2778 47.2768 42.5146 47.3195C42.7514 47.3621 42.995 47.3472 43.2248 47.2759C43.4546 47.2047 43.6639 47.0792 43.835 46.91L47.375 43.37C47.5652 43.176 47.6992 42.934 47.7626 42.6698C47.826 42.4056 47.8165 42.1292 47.735 41.87L44.495 32.135L48.65 27.89C49.0808 27.4618 49.4221 26.9522 49.6539 26.3908C49.8856 25.8293 50.0033 25.2274 50 24.62V24.62ZM46.52 25.775L41.66 30.635C41.4698 30.829 41.3358 31.071 41.2724 31.3352C41.209 31.5994 41.2185 31.8758 41.3 32.135L44.54 41.855L43.19 43.205L39.665 35.45C39.565 35.2297 39.4131 35.037 39.2225 34.8881C39.0318 34.7392 38.8079 34.6387 38.57 34.595C38.3301 34.5512 38.0831 34.5666 37.8505 34.6398C37.6179 34.7129 37.4066 34.8417 37.235 35.015L31.055 41.255C30.8331 41.4766 30.6863 41.7623 30.6352 42.0717C30.5841 42.3811 30.6312 42.6988 30.77 42.98L32 45.5L31.16 46.34L23.615 38.78L24.5 38L27.065 39.29C27.3462 39.4288 27.6639 39.4759 27.9733 39.4248C28.2827 39.3737 28.5684 39.2269 28.79 39.005L35 32.765C35.1724 32.594 35.3006 32.3837 35.3738 32.1522C35.4469 31.9207 35.4628 31.6749 35.42 31.4359C35.3773 31.1969 35.2771 30.9718 35.1282 30.7801C34.9792 30.5883 34.786 30.4356 34.565 30.335L26.75 26.81L28.1 25.46L37.82 28.7C38.0792 28.7815 38.3556 28.791 38.6198 28.7276C38.884 28.6642 39.126 28.5302 39.32 28.34L44.18 23.48C44.3295 23.3271 44.508 23.2057 44.705 23.1228C44.9021 23.0399 45.1137 22.9972 45.3275 22.9972C45.5413 22.9972 45.7529 23.0399 45.95 23.1228C46.147 23.2057 46.3255 23.3271 46.475 23.48C46.6315 23.625 46.7552 23.8016 46.838 23.9982C46.9208 24.1948 46.9606 24.4068 46.955 24.62C46.9631 24.8318 46.9288 25.0431 46.8541 25.2414C46.7794 25.4398 46.6658 25.6212 46.52 25.775V25.775Z" fill="#3AB44A"/>
</svg>
