<svg width="126" height="126" viewBox="0 0 126 126" fill="none" xmlns="http://www.w3.org/2000/svg">
<circle cx="63" cy="63.4336" r="62.5" fill="#FDF0F0"/>
<circle cx="63" cy="63.4336" r="49.5" fill="#F7DCDC"/>
<circle cx="63" cy="63.4336" r="40.5" fill="#FF3D00"/>
<path d="M66.434 62.9343L75.3923 53.9968C75.7846 53.6045 76.005 53.0724 76.005 52.5176C76.005 51.9628 75.7846 51.4308 75.3923 51.0385C75 50.6462 74.4679 50.4258 73.9131 50.4258C73.3583 50.4258 72.8263 50.6462 72.434 51.0385L63.4965 59.9968L54.559 51.0385C54.1667 50.6462 53.6346 50.4258 53.0798 50.4258C52.525 50.4258 51.9929 50.6462 51.6006 51.0385C51.2083 51.4308 50.9879 51.9628 50.9879 52.5176C50.9879 53.0724 51.2083 53.6045 51.6006 53.9968L60.559 62.9343L51.6006 71.8718C51.4054 72.0655 51.2504 72.2959 51.1446 72.5498C51.0388 72.8036 50.9844 73.0759 50.9844 73.351C50.9844 73.626 51.0388 73.8983 51.1446 74.1522C51.2504 74.406 51.4054 74.6365 51.6006 74.8301C51.7943 75.0254 52.0247 75.1804 52.2786 75.2862C52.5325 75.3919 52.8048 75.4464 53.0798 75.4464C53.3548 75.4464 53.6271 75.3919 53.881 75.2862C54.1349 75.1804 54.3653 75.0254 54.559 74.8301L63.4965 65.8718L72.434 74.8301C72.6276 75.0254 72.858 75.1804 73.1119 75.2862C73.3658 75.3919 73.6381 75.4464 73.9131 75.4464C74.1881 75.4464 74.4605 75.3919 74.7143 75.2862C74.9682 75.1804 75.1986 75.0254 75.3923 74.8301C75.5876 74.6365 75.7425 74.406 75.8483 74.1522C75.9541 73.8983 76.0085 73.626 76.0085 73.351C76.0085 73.0759 75.9541 72.8036 75.8483 72.5498C75.7425 72.2959 75.5876 72.0655 75.3923 71.8718L66.434 62.9343Z" fill="white"/>
</svg>
