<svg width="21" height="20" viewBox="0 0 21 20" fill="none" xmlns="http://www.w3.org/2000/svg">
<path opacity="0.4" d="M0.500001 10C0.500001 4.485 4.986 -1.35628e-06 10.5 -8.74228e-07C16.014 -3.92179e-07 20.5 4.485 20.5 10C20.5 15.514 16.014 20 10.5 20C4.986 20 0.5 15.514 0.500001 10Z" fill="#3AB44A"/>
<path d="M6.27893 11.442C6.27893 11.251 6.35193 11.059 6.49793 10.913L9.96793 7.42603C10.1089 7.28503 10.2999 7.20603 10.4999 7.20603C10.6989 7.20603 10.8899 7.28503 11.0309 7.42603L14.5029 10.913C14.7949 11.206 14.7949 11.68 14.5009 11.973C14.2069 12.265 13.7319 12.264 13.4399 11.971L10.4999 9.01803L7.55993 11.971C7.26793 12.264 6.79393 12.265 6.49993 11.973C6.35193 11.827 6.27893 11.634 6.27893 11.442Z" fill="white"/>
</svg>
