<svg width="22" height="19" viewBox="0 0 22 19" fill="none" xmlns="http://www.w3.org/2000/svg">
<path d="M14.5992 4.19961C14.5992 6.18783 12.9874 7.79961 10.9992 7.79961C9.01099 7.79961 7.39922 6.18783 7.39922 4.19961C7.39922 2.21138 9.01099 0.599609 10.9992 0.599609C12.9874 0.599609 14.5992 2.21138 14.5992 4.19961Z" fill="#6B7280"/>
<path d="M20.5992 6.59961C20.5992 7.92509 19.5247 8.99961 18.1992 8.99961C16.8737 8.99961 15.7992 7.92509 15.7992 6.59961C15.7992 5.27413 16.8737 4.19961 18.1992 4.19961C19.5247 4.19961 20.5992 5.27413 20.5992 6.59961Z" fill="#6B7280"/>
<path d="M15.7992 14.9996C15.7992 12.3486 13.6502 10.1996 10.9992 10.1996C8.34825 10.1996 6.19922 12.3486 6.19922 14.9996V18.5996H15.7992V14.9996Z" fill="#6B7280"/>
<path d="M6.19922 6.59961C6.19922 7.92509 5.1247 8.99961 3.79922 8.99961C2.47374 8.99961 1.39922 7.92509 1.39922 6.59961C1.39922 5.27413 2.47374 4.19961 3.79922 4.19961C5.1247 4.19961 6.19922 5.27413 6.19922 6.59961Z" fill="#6B7280"/>
<path d="M18.1992 18.5996V14.9996C18.1992 13.7346 17.873 12.5459 17.3001 11.5128C17.5875 11.4389 17.8888 11.3996 18.1992 11.3996C20.1874 11.3996 21.7992 13.0114 21.7992 14.9996V18.5996H18.1992Z" fill="#6B7280"/>
<path d="M4.69833 11.5128C4.12544 12.5459 3.79922 13.7346 3.79922 14.9996V18.5996H0.199219V14.9996C0.199219 13.0114 1.81099 11.3996 3.79922 11.3996C4.10967 11.3996 4.41094 11.4389 4.69833 11.5128Z" fill="#6B7280"/>
</svg>
