<svg width="20" height="22" viewBox="0 0 20 22" fill="none" xmlns="http://www.w3.org/2000/svg">
<path fill-rule="evenodd" clip-rule="evenodd" d="M12.3984 0.90332L7.59844 5.70332V21.0974L12.3984 16.2974V0.90332Z" fill="#6B7280"/>
<path fill-rule="evenodd" clip-rule="evenodd" d="M2.44697 2.95185C2.10377 2.60865 1.58763 2.50598 1.13922 2.69172C0.690808 2.87746 0.398438 3.31502 0.398438 3.80038V15.8004C0.398438 16.1186 0.524866 16.4239 0.749909 16.6489L5.19844 21.0974V5.70332L2.44697 2.95185Z" fill="#6B7280"/>
<path fill-rule="evenodd" clip-rule="evenodd" d="M19.247 5.35185L14.7984 0.90332V16.2974L17.5499 19.0489C17.8931 19.3921 18.4092 19.4948 18.8577 19.309C19.3061 19.1233 19.5984 18.6857 19.5984 18.2004V6.20038C19.5984 5.88212 19.472 5.57689 19.247 5.35185Z" fill="#6B7280"/>
</svg>
