<svg width="44" height="44" viewBox="0 0 44 44" fill="none" xmlns="http://www.w3.org/2000/svg">
<rect width="44" height="44" rx="8" fill="#3AB44A"/>
<path fill-rule="evenodd" clip-rule="evenodd" d="M24.3984 11.9033L19.5984 16.7033V32.0974L24.3984 27.2974V11.9033Z" fill="white"/>
<path fill-rule="evenodd" clip-rule="evenodd" d="M14.447 13.9518C14.1038 13.6087 13.5876 13.506 13.1392 13.6917C12.6908 13.8775 12.3984 14.315 12.3984 14.8004V26.8004C12.3984 27.1186 12.5249 27.4239 12.7499 27.6489L17.1984 32.0974V16.7033L14.447 13.9518Z" fill="white"/>
<path fill-rule="evenodd" clip-rule="evenodd" d="M31.247 16.3518L26.7984 11.9033V27.2974L29.5499 30.0489C29.8931 30.3921 30.4092 30.4948 30.8577 30.309C31.3061 30.1233 31.5984 29.6857 31.5984 29.2004V17.2004C31.5984 16.8821 31.472 16.5769 31.247 16.3518Z" fill="white"/>
</svg>
