<svg width="44" height="44" viewBox="0 0 44 44" fill="none" xmlns="http://www.w3.org/2000/svg">
<path d="M19.6 16.0004C18.9372 16.0004 18.4 16.5376 18.4 17.2004C18.4 17.8631 18.9372 18.4004 19.6 18.4004L26.3029 18.4004L24.7514 19.9519C24.2828 20.4205 24.2828 21.1803 24.7514 21.6489C25.2201 22.1175 25.9799 22.1175 26.4485 21.6489L30.0485 18.0489C30.2735 17.8239 30.4 17.5187 30.4 17.2004C30.4 16.8821 30.2735 16.5769 30.0485 16.3519L26.4485 12.7519C25.9799 12.2832 25.2201 12.2832 24.7514 12.7519C24.2828 13.2205 24.2828 13.9803 24.7514 14.4489L26.3029 16.0004L19.6 16.0004Z" fill="#6B7280"/>
<path d="M24.4 28.0004C25.0627 28.0004 25.6 27.4631 25.6 26.8004C25.6 26.1377 25.0627 25.6004 24.4 25.6004L17.697 25.6004L19.2485 24.0489C19.7171 23.5803 19.7171 22.8205 19.2485 22.3519C18.7799 21.8832 18.0201 21.8832 17.5514 22.3519L13.9514 25.9519C13.7264 26.1769 13.6 26.4821 13.6 26.8004C13.6 27.1187 13.7264 27.4239 13.9514 27.6489L17.5514 31.2489C18.0201 31.7175 18.7799 31.7175 19.2485 31.2489C19.7171 30.7803 19.7171 30.0205 19.2485 29.5519L17.697 28.0004L24.4 28.0004Z" fill="#6B7280"/>
</svg>
