<svg width="27" height="24" viewBox="0 0 27 24" fill="none" xmlns="http://www.w3.org/2000/svg">
<path d="M10.4852 10.117C13.1859 10.117 15.3752 7.92766 15.3752 5.22696C15.3752 2.52626 13.1859 0.336914 10.4852 0.336914C7.78447 0.336914 5.59512 2.52626 5.59512 5.22696C5.59512 7.92766 7.78447 10.117 10.4852 10.117Z" fill="#3AB44A"/>
<path d="M10.4852 13.377C15.8866 13.377 20.2653 17.7557 20.2653 23.1571H0.705078C0.705078 17.7557 5.08378 13.377 10.4852 13.377Z" fill="#3AB44A"/>
<path d="M23.5253 6.85698C23.5253 5.95674 22.7955 5.22696 21.8953 5.22696C20.995 5.22696 20.2653 5.95674 20.2653 6.85698V8.48699H18.6352C17.735 8.48699 17.0052 9.21677 17.0052 10.117C17.0052 11.0172 17.735 11.747 18.6352 11.747H20.2653V13.377C20.2653 14.2773 20.995 15.0071 21.8953 15.0071C22.7955 15.0071 23.5253 14.2773 23.5253 13.377V11.747H25.1553C26.0555 11.747 26.7853 11.0172 26.7853 10.117C26.7853 9.21677 26.0555 8.48699 25.1553 8.48699H23.5253V6.85698Z" fill="#3AB44A"/>
</svg>
