<svg width="70" height="70" viewBox="0 0 70 70" fill="none" xmlns="http://www.w3.org/2000/svg">
<circle cx="35" cy="35" r="35" fill="#F0FDF4"/>
<path d="M38 29H39.5C39.8978 29 40.2794 28.842 40.5607 28.5607C40.842 28.2794 41 27.8978 41 27.5C41 27.1022 40.842 26.7206 40.5607 26.4393C40.2794 26.158 39.8978 26 39.5 26H38C37.6022 26 37.2206 26.158 36.9393 26.4393C36.658 26.7206 36.5 27.1022 36.5 27.5C36.5 27.8978 36.658 28.2794 36.9393 28.5607C37.2206 28.842 37.6022 29 38 29V29ZM38 35H39.5C39.8978 35 40.2794 34.842 40.5607 34.5607C40.842 34.2794 41 33.8978 41 33.5C41 33.1022 40.842 32.7206 40.5607 32.4393C40.2794 32.158 39.8978 32 39.5 32H38C37.6022 32 37.2206 32.158 36.9393 32.4393C36.658 32.7206 36.5 33.1022 36.5 33.5C36.5 33.8978 36.658 34.2794 36.9393 34.5607C37.2206 34.842 37.6022 35 38 35V35ZM30.5 29H32C32.3978 29 32.7794 28.842 33.0607 28.5607C33.342 28.2794 33.5 27.8978 33.5 27.5C33.5 27.1022 33.342 26.7206 33.0607 26.4393C32.7794 26.158 32.3978 26 32 26H30.5C30.1022 26 29.7206 26.158 29.4393 26.4393C29.158 26.7206 29 27.1022 29 27.5C29 27.8978 29.158 28.2794 29.4393 28.5607C29.7206 28.842 30.1022 29 30.5 29V29ZM30.5 35H32C32.3978 35 32.7794 34.842 33.0607 34.5607C33.342 34.2794 33.5 33.8978 33.5 33.5C33.5 33.1022 33.342 32.7206 33.0607 32.4393C32.7794 32.158 32.3978 32 32 32H30.5C30.1022 32 29.7206 32.158 29.4393 32.4393C29.158 32.7206 29 33.1022 29 33.5C29 33.8978 29.158 34.2794 29.4393 34.5607C29.7206 34.842 30.1022 35 30.5 35V35ZM48.5 47H47V21.5C47 21.1022 46.842 20.7206 46.5607 20.4393C46.2794 20.158 45.8978 20 45.5 20H24.5C24.1022 20 23.7206 20.158 23.4393 20.4393C23.158 20.7206 23 21.1022 23 21.5V47H21.5C21.1022 47 20.7206 47.158 20.4393 47.4393C20.158 47.7206 20 48.1022 20 48.5C20 48.8978 20.158 49.2794 20.4393 49.5607C20.7206 49.842 21.1022 50 21.5 50H48.5C48.8978 50 49.2794 49.842 49.5607 49.5607C49.842 49.2794 50 48.8978 50 48.5C50 48.1022 49.842 47.7206 49.5607 47.4393C49.2794 47.158 48.8978 47 48.5 47ZM36.5 47H33.5V41H36.5V47ZM44 47H39.5V39.5C39.5 39.1022 39.342 38.7206 39.0607 38.4393C38.7794 38.158 38.3978 38 38 38H32C31.6022 38 31.2206 38.158 30.9393 38.4393C30.658 38.7206 30.5 39.1022 30.5 39.5V47H26V23H44V47Z" fill="#3AB44A"/>
</svg>
