<svg width="21" height="20" viewBox="0 0 21 20" fill="none" xmlns="http://www.w3.org/2000/svg">
<path opacity="0.4" d="M20.5 10C20.5 15.515 16.014 20 10.5 20C4.986 20 0.5 15.515 0.5 10C0.5 4.486 4.986 0 10.5 0C16.014 0 20.5 4.486 20.5 10Z" fill="#3AB44A"/>
<path d="M14.7211 8.55797C14.7211 8.74897 14.6481 8.94097 14.5021 9.08697L11.0321 12.574C10.8911 12.715 10.7001 12.794 10.5001 12.794C10.3011 12.794 10.1101 12.715 9.96907 12.574L6.49707 9.08697C6.20507 8.79397 6.20507 8.31997 6.49907 8.02697C6.79307 7.73497 7.26807 7.73597 7.56007 8.02897L10.5001 10.982L13.4401 8.02897C13.7321 7.73597 14.2061 7.73497 14.5001 8.02697C14.6481 8.17297 14.7211 8.36597 14.7211 8.55797Z" fill="white"/>
</svg>
