<svg width="126" height="126" viewBox="0 0 126 126" fill="none" xmlns="http://www.w3.org/2000/svg">
<circle cx="63" cy="63" r="62.5" fill="#F0FDF4"/>
<circle cx="63" cy="63" r="49.5" fill="#DEF7DC"/>
<circle cx="63" cy="63" r="40.5" fill="#3AB44A"/>
<path d="M45.6096 53.0659L62.5624 42.9019C62.8473 42.7309 63.1734 42.6406 63.5056 42.6406C63.8379 42.6406 64.164 42.7309 64.4489 42.9019L81.3852 53.0677C81.5211 53.1492 81.6336 53.2644 81.7117 53.4022C81.7897 53.5401 81.8308 53.6958 81.8307 53.8542V77.1669C81.8307 77.6531 81.6376 78.1194 81.2938 78.4633C80.9499 78.8071 80.4836 79.0002 79.9974 79.0002H46.9974C46.5112 79.0002 46.0448 78.8071 45.701 78.4633C45.3572 78.1194 45.1641 77.6531 45.1641 77.1669V53.8524C45.164 53.694 45.2051 53.5383 45.2831 53.4004C45.3612 53.2626 45.4737 53.1473 45.6096 53.0659ZM75.1317 55.6142L63.6092 65.5857L51.8502 55.6032L49.4779 58.3972L63.6312 70.4147L77.5297 58.3881L75.1317 55.6142V55.6142Z" fill="white"/>
</svg>
