<svg width="24" height="24" viewBox="0 0 24 24" fill="none" xmlns="http://www.w3.org/2000/svg">
<path fill-rule="evenodd" clip-rule="evenodd" d="M3.60156 20.4004C3.60156 19.7376 4.13882 19.2004 4.80156 19.2004H19.2016C19.8643 19.2004 20.4016 19.7376 20.4016 20.4004C20.4016 21.0631 19.8643 21.6004 19.2016 21.6004H4.80156C4.13882 21.6004 3.60156 21.0631 3.60156 20.4004ZM7.55303 11.1519C8.02166 10.6832 8.78146 10.6832 9.25009 11.1519L10.8016 12.7033L10.8016 3.60039C10.8016 2.93765 11.3388 2.40039 12.0016 2.40039C12.6643 2.40039 13.2016 2.93765 13.2016 3.60039L13.2016 12.7033L14.753 11.1519C15.2217 10.6832 15.9815 10.6832 16.4501 11.1519C16.9187 11.6205 16.9187 12.3803 16.4501 12.8489L12.8501 16.4489C12.625 16.674 12.3198 16.8004 12.0016 16.8004C11.6833 16.8004 11.3781 16.674 11.153 16.4489L7.55303 12.8489C7.0844 12.3803 7.08441 11.6205 7.55303 11.1519Z" fill="#6B7280"/>
</svg>
