<svg width="25" height="24" viewBox="0 0 25 24" fill="none" xmlns="http://www.w3.org/2000/svg">
<path fill-rule="evenodd" clip-rule="evenodd" d="M14.9004 1.90295L10.1004 6.70295V22.0971L14.9004 17.2971V1.90295Z" fill="#3AB44A"/>
<path fill-rule="evenodd" clip-rule="evenodd" d="M4.94892 3.95148C4.60572 3.60828 4.08958 3.50562 3.64117 3.69136C3.19276 3.87709 2.90039 4.31466 2.90039 4.80001V16.8C2.90039 17.1183 3.02682 17.4235 3.25186 17.6485L7.70039 22.0971V6.70295L4.94892 3.95148Z" fill="#3AB44A"/>
<path fill-rule="evenodd" clip-rule="evenodd" d="M21.7489 6.35148L17.3004 1.90295V17.2971L20.0519 20.0485C20.3951 20.3917 20.9112 20.4944 21.3596 20.3087C21.808 20.1229 22.1004 19.6854 22.1004 19.2V7.20001C22.1004 6.88175 21.974 6.57653 21.7489 6.35148Z" fill="#3AB44A"/>
</svg>
