<svg width="70" height="70" viewBox="0 0 70 70" fill="none" xmlns="http://www.w3.org/2000/svg">
<circle cx="35" cy="35" r="35" fill="#F0FDF4"/>
<path d="M22.43 42.92C22.5772 43.29 22.8653 43.5863 23.231 43.7439C23.5967 43.9014 24.01 43.9072 24.38 43.76C24.75 43.6128 25.0463 43.3247 25.2038 42.959C25.3614 42.5933 25.3672 42.18 25.22 41.81L23.54 37.58L33.5 35.375V42.5C33.5 42.8978 33.658 43.2794 33.9393 43.5607C34.2206 43.842 34.6022 44 35 44C35.3978 44 35.7793 43.842 36.0606 43.5607C36.342 43.2794 36.5 42.8978 36.5 42.5V35.375L46.46 37.58L44.78 41.81C44.7069 41.9932 44.6707 42.189 44.6734 42.3862C44.6761 42.5833 44.7176 42.7781 44.7956 42.9592C44.8736 43.1403 44.9866 43.3043 45.1281 43.4417C45.2695 43.5791 45.4367 43.6873 45.62 43.76C45.7967 43.8298 45.985 43.8655 46.175 43.865C46.4754 43.8653 46.769 43.7754 47.0177 43.6069C47.2664 43.4384 47.4588 43.1991 47.57 42.92L49.895 37.055C49.9748 36.8521 50.0094 36.6343 49.9965 36.4167C49.9835 36.1991 49.9233 35.987 49.82 35.795C49.7198 35.6037 49.5794 35.4364 49.4086 35.3044C49.2377 35.1723 49.0403 35.0787 48.83 35.03L44 33.965V27.5C44 27.1022 43.842 26.7206 43.5606 26.4393C43.2793 26.158 42.8978 26 42.5 26H39.5V21.5C39.5 21.1022 39.342 20.7206 39.0606 20.4393C38.7793 20.158 38.3978 20 38 20H32C31.6022 20 31.2206 20.158 30.9393 20.4393C30.658 20.7206 30.5 21.1022 30.5 21.5V26H27.5C27.1022 26 26.7206 26.158 26.4393 26.4393C26.158 26.7206 26 27.1022 26 27.5V33.965L21.17 35C20.9596 35.0487 20.7623 35.1423 20.5914 35.2744C20.4206 35.4064 20.2802 35.5737 20.18 35.765C20.0767 35.957 20.0165 36.1691 20.0035 36.3867C19.9905 36.6043 20.0252 36.8221 20.105 37.025L22.43 42.92ZM33.5 23H36.5V26H33.5V23ZM29 29H41V33.29L35.33 32H35.18H35H34.82H34.67L29 33.29V29ZM48.065 45.92C47.5387 46.0813 47.0347 46.3081 46.565 46.595C46.0871 46.8744 45.5435 47.0217 44.99 47.0217C44.4364 47.0217 43.8928 46.8744 43.415 46.595C42.3759 46.0088 41.203 45.7008 40.01 45.7008C38.8169 45.7008 37.6441 46.0088 36.605 46.595C36.1206 46.8712 35.5726 47.0165 35.015 47.0165C34.4574 47.0165 33.9094 46.8712 33.425 46.595C32.385 46.0116 31.2125 45.7052 30.02 45.7052C28.8275 45.7052 27.655 46.0116 26.615 46.595C26.1371 46.8744 25.5935 47.0217 25.04 47.0217C24.4864 47.0217 23.9428 46.8744 23.465 46.595C22.9952 46.3081 22.4913 46.0813 21.965 45.92C21.7654 45.849 21.553 45.8212 21.3419 45.8382C21.1308 45.8552 20.9256 45.9168 20.74 46.0188C20.5544 46.1208 20.3924 46.261 20.2649 46.4301C20.1373 46.5993 20.0471 46.7935 20 47C19.888 47.3799 19.9308 47.7887 20.1191 48.1372C20.3074 48.4856 20.6258 48.7455 21.005 48.86C21.307 48.9418 21.5952 49.0682 21.86 49.235C22.77 49.769 23.8048 50.0536 24.86 50.06C25.9559 50.0602 27.0323 49.7704 27.98 49.22C28.5679 48.8957 29.2285 48.7255 29.9 48.7255C30.5715 48.7255 31.232 48.8957 31.82 49.22C32.7609 49.758 33.8261 50.0411 34.91 50.0411C35.9939 50.0411 37.059 49.758 38 49.22C38.5879 48.8957 39.2485 48.7255 39.92 48.7255C40.5915 48.7255 41.252 48.8957 41.84 49.22C42.7697 49.7749 43.8323 50.0679 44.915 50.0679C45.9977 50.0679 47.0603 49.7749 47.99 49.22C48.2548 49.0532 48.5429 48.9268 48.845 48.845C49.0446 48.8046 49.2339 48.724 49.4014 48.6081C49.5688 48.4922 49.7109 48.3433 49.819 48.1707C49.927 47.9981 49.9988 47.8053 50.0299 47.604C50.0611 47.4027 50.0509 47.1972 50 47C49.9523 46.797 49.8628 46.6062 49.7373 46.4397C49.6117 46.2732 49.4528 46.1347 49.2708 46.0331C49.0887 45.9315 48.8874 45.8689 48.6798 45.8495C48.4722 45.83 48.2628 45.854 48.065 45.92Z" fill="#3AB44A"/>
</svg>
