<svg width="15" height="20" viewBox="0 0 15 20" fill="none" xmlns="http://www.w3.org/2000/svg">
<path fill-rule="evenodd" clip-rule="evenodd" d="M2.72141 0.419189C2.12743 0.419189 1.64591 0.900709 1.64591 1.49469V6.9075L5.11325 4.80254V1.49469C5.11325 0.90071 4.63173 0.419189 4.03775 0.419189H2.72141ZM9.55666 4.26937L9.43998 4.199C8.4122 3.57919 7.12529 3.58106 6.09931 4.20392L6.08932 4.20999V2.40752C6.08932 1.81353 6.57084 1.33201 7.16482 1.33201H8.48116C9.07514 1.33201 9.55666 1.81353 9.55666 2.40752V4.26937ZM13.998 6.94786L10.5307 4.85677V2.40752C10.5307 1.81354 11.0122 1.33202 11.6062 1.33202H12.9225C13.5165 1.33202 13.998 1.81354 13.998 2.40752V6.94786ZM6.09129 5.22188L2.63416 7.32066C0.867439 8.39321 0.550607 10.8271 1.98385 12.3162L5.44313 15.9103C6.70948 17.226 8.8144 17.2295 10.0851 15.918L13.5658 12.3255C15.0097 10.8352 14.6917 8.38903 12.9148 7.3174L9.43194 5.21698C8.40416 4.59715 7.11726 4.59904 6.09129 5.22188ZM5.28314 18.1643C4.61869 17.4662 3.63141 17.1771 2.69537 17.4066L0.714572 17.8922L0.458496 16.8476L2.43932 16.3621C3.74977 16.0408 5.13196 16.4455 6.0622 17.4228L6.60297 17.991C6.91563 18.3194 7.34927 18.5054 7.80274 18.5054C8.3464 18.5054 8.85546 18.2386 9.16481 17.7915L9.27483 17.6326C10.0263 16.5466 11.3832 16.0558 12.6555 16.4097L14.2452 16.8518L13.957 17.888L12.3673 17.4458C11.5363 17.2147 10.6501 17.5353 10.1592 18.2446L10.0492 18.4035C9.53901 19.1409 8.69943 19.5809 7.80274 19.5809C7.05483 19.5809 6.33957 19.2742 5.82394 18.7325L5.28314 18.1643Z" fill="#3AB44A"/>
</svg>
