<svg width="44" height="44" viewBox="0 0 44 44" fill="none" xmlns="http://www.w3.org/2000/svg">
<rect width="44" height="44" rx="8" fill="#3AB44A"/>
<path d="M20.8016 12.4004C19.4761 12.4004 18.4016 13.4749 18.4016 14.8004V24.4004C18.4016 25.7259 19.4761 26.8004 20.8016 26.8004H28.0016C29.327 26.8004 30.4016 25.7259 30.4016 24.4004V17.6974C30.4016 17.0609 30.1487 16.4505 29.6986 16.0004L26.8016 13.1033C26.3515 12.6532 25.741 12.4004 25.1045 12.4004H20.8016Z" fill="white"/>
<path d="M13.6016 19.6004C13.6016 18.2749 14.6761 17.2004 16.0016 17.2004V29.2004H25.6016C25.6016 30.5259 24.527 31.6004 23.2016 31.6004H16.0016C14.6761 31.6004 13.6016 30.5259 13.6016 29.2004V19.6004Z" fill="white"/>
</svg>
