<svg width="44" height="44" viewBox="0 0 44 44" fill="none" xmlns="http://www.w3.org/2000/svg">
<rect width="44" height="44" rx="8" fill="#3AB44A"/>
<path fill-rule="evenodd" clip-rule="evenodd" d="M23.7855 13.8055C23.3307 11.932 20.6662 11.932 20.2114 13.8055C19.9176 15.0158 18.531 15.5901 17.4674 14.9421C15.8211 13.9389 13.937 15.823 14.9401 17.4694C15.5882 18.5329 15.0138 19.9195 13.8036 20.2133C11.9301 20.6682 11.9301 23.3326 13.8036 23.7875C15.0138 24.0813 15.5882 25.4679 14.9401 26.5314C13.937 28.1778 15.8211 30.0618 17.4674 29.0587C18.531 28.4107 19.9176 28.985 20.2114 30.1953C20.6662 32.0688 23.3307 32.0688 23.7855 30.1953C24.0793 28.985 25.4659 28.4107 26.5294 29.0587C28.1758 30.0618 30.0599 28.1778 29.0567 26.5314C28.4087 25.4679 28.983 24.0813 30.1933 23.7875C32.0668 23.3326 32.0668 20.6682 30.1933 20.2133C28.983 19.9195 28.4087 18.5329 29.0567 17.4694C30.0599 15.823 28.1758 13.9389 26.5294 14.9421C25.4659 15.5901 24.0793 15.0158 23.7855 13.8055ZM21.9984 25.6004C23.9867 25.6004 25.5984 23.9886 25.5984 22.0004C25.5984 20.0122 23.9867 18.4004 21.9984 18.4004C20.0102 18.4004 18.3984 20.0122 18.3984 22.0004C18.3984 23.9886 20.0102 25.6004 21.9984 25.6004Z" fill="white"/>
</svg>
