<svg width="44" height="44" viewBox="0 0 44 44" fill="none" xmlns="http://www.w3.org/2000/svg">
<path d="M19.6 29.7998C19.6 30.7939 18.7941 31.5998 17.8 31.5998C16.8059 31.5998 16 30.7939 16 29.7998C16 28.8057 16.8059 27.9998 17.8 27.9998C18.7941 27.9998 19.6 28.8057 19.6 29.7998Z" fill="#6B7280"/>
<path d="M28 29.7998C28 30.7939 27.1941 31.5998 26.2 31.5998C25.2059 31.5998 24.4 30.7939 24.4 29.7998C24.4 28.8057 25.2059 27.9998 26.2 27.9998C27.1941 27.9998 28 28.8057 28 29.7998Z" fill="#6B7280"/>
<path d="M13.6 14.7998C12.9373 14.7998 12.4 15.3371 12.4 15.9998V27.9998C12.4 28.6625 12.9373 29.1998 13.6 29.1998H14.86C15.138 27.8305 16.3486 26.7998 17.8 26.7998C19.2514 26.7998 20.4621 27.8305 20.74 29.1998H22C22.6628 29.1998 23.2 28.6625 23.2 27.9998V15.9998C23.2 15.3371 22.6628 14.7998 22 14.7998H13.6Z" fill="#6B7280"/>
<path d="M26.8 18.3998C26.1373 18.3998 25.6 18.9371 25.6 19.5998V26.8598C25.7939 26.8205 25.9945 26.7998 26.2 26.7998C27.6514 26.7998 28.8621 27.8305 29.14 29.1998H30.4C31.0628 29.1998 31.6 28.6625 31.6 27.9998V21.9998C31.6 21.6815 31.4736 21.3763 31.2486 21.1513L28.8486 18.7513C28.6235 18.5262 28.3183 18.3998 28 18.3998H26.8Z" fill="#6B7280"/>
</svg>
