<svg width="44" height="44" viewBox="0 0 44 44" fill="none" xmlns="http://www.w3.org/2000/svg">
<rect width="44" height="44" rx="8" fill="#3AB44A"/>
<path d="M19.6 29.8008C19.6 30.7949 18.7941 31.6008 17.8 31.6008C16.8059 31.6008 16 30.7949 16 29.8008C16 28.8067 16.8059 28.0008 17.8 28.0008C18.7941 28.0008 19.6 28.8067 19.6 29.8008Z" fill="white"/>
<path d="M28 29.8008C28 30.7949 27.1941 31.6008 26.2 31.6008C25.2059 31.6008 24.4 30.7949 24.4 29.8008C24.4 28.8067 25.2059 28.0008 26.2 28.0008C27.1941 28.0008 28 28.8067 28 29.8008Z" fill="white"/>
<path d="M13.6 14.8008C12.9373 14.8008 12.4 15.338 12.4 16.0008V28.0008C12.4 28.6635 12.9373 29.2008 13.6 29.2008H14.86C15.138 27.8314 16.3486 26.8008 17.8 26.8008C19.2514 26.8008 20.4621 27.8314 20.74 29.2008H22C22.6628 29.2008 23.2 28.6635 23.2 28.0008V16.0008C23.2 15.338 22.6628 14.8008 22 14.8008H13.6Z" fill="white"/>
<path d="M26.8 18.4008C26.1373 18.4008 25.6 18.938 25.6 19.6008V26.8608C25.7939 26.8214 25.9945 26.8008 26.2 26.8008C27.6514 26.8008 28.8621 27.8314 29.14 29.2008H30.4C31.0628 29.2008 31.6 28.6635 31.6 28.0008V22.0008C31.6 21.6825 31.4736 21.3773 31.2486 21.1523L28.8486 18.7523C28.6235 18.5272 28.3183 18.4008 28 18.4008H26.8Z" fill="white"/>
</svg>
