<svg width="70" height="70" viewBox="0 0 70 70" fill="none" xmlns="http://www.w3.org/2000/svg">
<circle cx="35" cy="35" r="35" fill="#F0FDF4"/>
<path d="M18.5 35.75V43.25C18.5 43.6478 18.658 44.0294 18.9393 44.3107C19.2206 44.592 19.6022 44.75 20 44.75H21.5C21.5 45.9435 21.9741 47.0881 22.818 47.932C23.6619 48.7759 24.8065 49.25 26 49.25C27.1935 49.25 28.3381 48.7759 29.182 47.932C30.0259 47.0881 30.5 45.9435 30.5 44.75H39.5C39.5 45.9435 39.9741 47.0881 40.818 47.932C41.6619 48.7759 42.8065 49.25 44 49.25C45.1935 49.25 46.3381 48.7759 47.182 47.932C48.0259 47.0881 48.5 45.9435 48.5 44.75H50C50.3978 44.75 50.7794 44.592 51.0607 44.3107C51.342 44.0294 51.5 43.6478 51.5 43.25V25.25C51.5 24.0565 51.0259 22.9119 50.182 22.068C49.3381 21.2241 48.1935 20.75 47 20.75H33.5C32.3065 20.75 31.1619 21.2241 30.318 22.068C29.4741 22.9119 29 24.0565 29 25.25V28.25H26C25.3014 28.25 24.6124 28.4127 23.9875 28.7251C23.3627 29.0375 22.8192 29.4911 22.4 30.05L18.8 34.85C18.7561 34.9152 18.7208 34.9858 18.695 35.06L18.605 35.225C18.5388 35.3923 18.5032 35.5701 18.5 35.75V35.75ZM42.5 44.75C42.5 44.4533 42.588 44.1633 42.7528 43.9166C42.9176 43.67 43.1519 43.4777 43.426 43.3642C43.7001 43.2506 44.0017 43.2209 44.2926 43.2788C44.5836 43.3367 44.8509 43.4796 45.0607 43.6893C45.2704 43.8991 45.4133 44.1664 45.4712 44.4574C45.5291 44.7483 45.4994 45.0499 45.3858 45.324C45.2723 45.5981 45.08 45.8324 44.8334 45.9972C44.5867 46.162 44.2967 46.25 44 46.25C43.6022 46.25 43.2206 46.092 42.9393 45.8107C42.658 45.5294 42.5 45.1478 42.5 44.75ZM32 25.25C32 24.8522 32.158 24.4706 32.4393 24.1893C32.7206 23.908 33.1022 23.75 33.5 23.75H47C47.3978 23.75 47.7794 23.908 48.0607 24.1893C48.342 24.4706 48.5 24.8522 48.5 25.25V41.75H47.33C46.9082 41.286 46.3941 40.9152 45.8207 40.6615C45.2472 40.4078 44.6271 40.2767 44 40.2767C43.3729 40.2767 42.7528 40.4078 42.1793 40.6615C41.6059 40.9152 41.0918 41.286 40.67 41.75H32V25.25ZM29 34.25H23L24.8 31.85C24.9397 31.6637 25.1209 31.5125 25.3292 31.4084C25.5375 31.3042 25.7671 31.25 26 31.25H29V34.25ZM24.5 44.75C24.5 44.4533 24.588 44.1633 24.7528 43.9166C24.9176 43.67 25.1519 43.4777 25.426 43.3642C25.7001 43.2506 26.0017 43.2209 26.2926 43.2788C26.5836 43.3367 26.8509 43.4796 27.0607 43.6893C27.2704 43.8991 27.4133 44.1664 27.4712 44.4574C27.5291 44.7483 27.4994 45.0499 27.3858 45.324C27.2723 45.5981 27.08 45.8324 26.8334 45.9972C26.5867 46.162 26.2967 46.25 26 46.25C25.6022 46.25 25.2206 46.092 24.9393 45.8107C24.658 45.5294 24.5 45.1478 24.5 44.75ZM21.5 37.25H29V41.42C28.1147 40.6288 26.9527 40.2196 25.767 40.2814C24.5814 40.3432 23.4682 40.8711 22.67 41.75H21.5V37.25Z" fill="#3AB44A"/>
</svg>
