<svg width="69" height="46" viewBox="0 0 69 46" fill="none" xmlns="http://www.w3.org/2000/svg">
<path d="M34.5723 14.9782L48.0866 7.43359L54.5691 11.2059L41.128 18.8237V34.7552L34.7188 30.69L34.5723 14.9782Z" fill="#9CA3AF"/>
<path d="M62.3706 27.1022L62.2607 19.0449L51.2734 25.3809V33.5481L62.3706 27.1022Z" fill="#9CA3AF"/>
<path fill-rule="evenodd" clip-rule="evenodd" d="M28.6767 11.5366L48.6736 0L68.5239 11.6465V34.5L51.3471 44.2787V37.3567L65.1178 29.1162L65.0812 13.6242L48.6003 23.0732L48.5637 46L28.6767 34.6099V31.4602H15.3455C14.6376 31.4602 14.0637 30.8863 14.0637 30.1783C14.0637 29.4704 14.6376 28.8965 15.3455 28.8965H28.6767V27.5048H20.5462C19.8382 27.5048 19.2643 26.9309 19.2643 26.2229C19.2643 25.515 19.8382 24.9411 20.5462 24.9411H28.6767V23.5494H13.8806C13.1726 23.5494 12.5987 22.9755 12.5987 22.2675C12.5987 21.5596 13.1726 20.9857 13.8806 20.9857H28.6767V19.5939H1.28185C0.573898 19.5939 0 19.0201 0 18.3121C0 17.6042 0.573898 17.0303 1.28185 17.0303H28.6767V11.5366ZM48.4904 3.91879L31.7898 13.2946V32.742L45.0478 40.543V21.1322L61.5653 11.5L48.4904 3.91879Z" fill="#9CA3AF"/>
</svg>
