<svg width="80" height="23" fill="none" xmlns="http://www.w3.org/2000/svg">
  <path d="M9.36.799c-.063.105-1.453 3.348-3.096 7.224-1.642 3.875-3.706 8.72-4.57 10.741C.831 20.786.072 22.576.01 22.703c-.084.21.4.274 2.001.274 2.022 0 2.127-.021 2.275-.485.126-.379 4.338-10.805 6.445-15.901.358-.864.716-1.475.821-1.37.19.19 3.349 7.646 3.349 7.899 0 .105-.99.168-2.19.168h-2.191l-.653 1.622c-.358.906-.653 1.706-.653 1.79 0 .105 1.643.169 3.665.169h3.644l1.263 2.99 1.264 3.012 2.17.063c2 .064 2.148.021 2.021-.316-.084-.21-2.253-5.244-4.823-11.162L13.741.65h-2.148c-1.18 0-2.19.063-2.232.148ZM24.206 11.753l.063 11.12 1.96.064 1.937.063V13.501h10.109v-3.58H28.376V4.234H38.907V.654H24.164l.042 11.099ZM40.636 11.75l.063 11.121 7.75.063 7.73.043v-3.58H44.596v-5.898h10.741v-3.58l-5.308-.043-5.328-.063-.063-2.78-.064-2.801 5.645-.043 5.645-.063.063-1.748.063-1.727H40.594l.042 11.1ZM57.443.756c0 .064.99 1.37 2.19 2.907 1.222 1.516 3.16 4.002 4.339 5.476 1.285 1.643 2.064 2.78 1.958 2.949-.084.147-2.064 2.653-4.423 5.56l-4.296 5.329h5.181l3.033-4.002c1.664-2.212 3.117-4.002 3.201-4.002.085 0 1.517 1.79 3.18 4.002l3.013 4.002h5.18l-.715-.906c-3.054-3.75-7.899-9.815-8.004-10.004-.084-.106 1.832-2.738 4.276-5.813L79.958.65h-5.14l-3.011 4.002c-1.664 2.211-3.096 4.002-3.18 4.002-.106 0-1.538-1.79-3.202-4.002L62.392.65h-2.464c-1.37 0-2.485.042-2.485.105Z" fill="#D1D5DB"/>
</svg>