<svg width="80" height="40" fill="none" xmlns="http://www.w3.org/2000/svg">
  <path fill-rule="evenodd" clip-rule="evenodd" d="M40.206 10.896c-.245.82-.57 1.355-1.305 2.144-.635.682-1.14 1.508-1.147 1.872-.001.077.195.174.435.214 1.365.229 2.518.974 2.227 1.44-.115.186-.198.199-.611.098-5.988-1.459-19.336 2.902-26.553 8.675-4.061 3.25-3.748 3.611 1.4 1.619 6.306-2.44 10.293-3.613 14.992-4.41 12.41-2.105 22.893-.881 35.646 4.16 5.109 2.02 5.701 2.016 3.467-.023-5.337-4.87-12.467-8.232-20.447-9.64a57.458 57.458 0 0 1-1.663-.31c-.19-.046-.262-.012-.262.124 0 .228.014.228-.8.017-.71-.183-2.842-.413-3.838-.413-.763 0-.764-.086-.015-.878.729-.77.732-1.258.014-2.297-.456-.661-1.19-2.24-1.193-2.564-.003-.404-.205-.303-.347.172Z" fill="#D1D5DB"/>
  <path fill-rule="evenodd" clip-rule="evenodd" d="M38.613.186a10.23 10.23 0 0 0-1.09.514c-.634.348-1.045.397-1.67.2-.285-.09-.209.08.248.547l.423.434-.276.555c-.363.726-.437 1.647-.193 2.387.185.562.177.574-.428.637-1.613.169-2.399-1.425-1.328-2.693.265-.314.229-.453-.224-.871C31.576-.407 27.6 3.346 27.6 8.008c0 .544.03.854.082.854.11 0 .554-.228.711-.365.518-.453-.45 2.809-1.397 4.705-.576 1.153-.576 1.152.033.91 2.026-.805 4.17-2.229 5.542-3.677l.463-.49-.046.716-.046.716.633-.337c1.08-.573 2.12-1.676 2.41-2.556.234-.71.33-.189.117.64-.576 2.25-2.614 4.076-5.614 5.032-1.147.365-1.136.494.078.952.802.303 1.565.419 2.758.419h1.084l.399-.316c.22-.174.495-.46.611-.636l.212-.32.134.616c.073.34.172.716.219.837.157.405.105.581-.273.93-.198.182-.412.432-.476.556l-.116.226.848-.065c1.03-.078 2.069-.063 2.502.036.275.063.334.053.41-.07.196-.313-.579-.814-1.496-.968-.162-.027-.294-.092-.293-.144.005-.245.345-.8.77-1.257.501-.538.657-.792.877-1.42.111-.32.148-.367.191-.24.266.779.499 1.29.79 1.733.54.822.548 1.106.046 1.636-.504.532-.503.59.01.59.67 0 2.103.155 2.58.278.554.144.537.145.537-.038 0-.451-.43-.834-1.204-1.072l-.46-.142.05-.355c.026-.194.201-.654.388-1.022.648-1.27.913-2.447.913-4.056v-.976l.353.31c.502.443 1.772.9 1.653.597-.033-.082-.078-.484-.1-.894l-.042-.745.416.689c1.216 2.012 3.874 4.16 5.463 4.414l.333.053-.344-.735c-.617-1.32-1.143-3.38-1.145-4.483v-.611l.353.207c.577.339.619.276.564-.85-.247-5.082-4.25-8.266-7.146-5.684l-.386.344.325.41c.618.783.55 1.777-.158 2.29l-.323.234-.17-.53c-.458-1.439-1.17-2.138-2.173-2.138h-.54l.141-.243c.306-.523 1.078-.728 1.559-.413.253.166.285.123.298-.393.01-.441-.174-.767-.492-.872-.07-.022-.207-.166-.306-.32-.34-.527-1.192-.656-2.098-.32Zm2.954 27.424c-4.526.425-6.773 5.471-4.11 9.229 1.632 2.301 5.242 2.902 8.277 1.376l.372-.187v-5.227l-1-.05c-1.29-.066-2.685-.066-2.685 0 0 .027.086.163.191.302.647.848.974 1.687 1.038 2.666l.048.726-.384.082c-2.639.565-4.493-1.1-4.194-3.766.308-2.746 3.925-3.74 6.498-1.787.227.172.43.313.45.313.021 0 .038-.614.038-1.364v-1.365l-.333-.195c-.96-.56-2.784-.886-4.206-.753Zm11.23-.005c-4.402.789-6.055 6.581-2.81 9.84 2.81 2.822 7.693 1.749 9.057-1.99 1.584-4.339-1.84-8.64-6.248-7.85ZM0 27.994c0 .33.48 1.181.95 1.683.641.686.618.496.618 5.107v4.085l1.353.046c5.505.188 8.14-1.602 8.134-5.526-.007-3.97-2.182-5.449-8.134-5.53L0 27.82v.175Zm13.683 5.376a930.607 930.607 0 0 0-2.77 5.526c-.082.236 1.471-.074 2.187-.437.593-.3 1.194-.903 1.499-1.501l.26-.511.607.044c1.37.101 2.688.56 4.057 1.412a8.05 8.05 0 0 0 2.335.954l.705.157c.268.06.328.197-2.147-4.881a940.295 940.295 0 0 1-2.664-5.492l-.34-.725-.492.002-.493.002-2.744 5.45Zm10.39.03v5.493h2.665v-5.807l3.45 2.884c3.32 2.776 3.77 3.105 4.024 2.947.037-.022.055-2.507.041-5.521l-.026-5.48H31.52v5.72l-3.419-2.84c-3.06-2.543-3.45-2.844-3.724-2.865l-.306-.024V33.4Zm36.46-4.308v1.176h3.451v8.625h2.666v-8.625h3.45v-2.352h-9.566v1.176Zm11.527 4.313v5.488H79.353v-2.352h-4.705v-2.016l.482-.05c.265-.029 1.182-.051 2.039-.051h1.556V32.15H74.647v-1.882h1.644c2.609 0 3.403-.442 3.658-2.033l.051-.32h-7.94v5.49ZM53.272 30.06c-3.328.839-2.798 6.48.608 6.48 2.295 0 3.594-2.995 2.26-5.209-.6-.996-1.817-1.536-2.868-1.27ZM4.026 33.365l-.013 3.118.914-.04c4.806-.208 4.674-5.831-.144-6.147l-.745-.049-.012 3.118Zm12.373-.26c-.538 1.146-.542 1.1.093 1.235.25.054.753.198 1.116.32l.66.224-.109-.25c-1.184-2.727-1.194-2.735-1.76-1.53Z" fill="#D1D5DB"/>
</svg>