<svg width="1070" height="396" viewBox="0 0 1070 396" fill="none" xmlns="http://www.w3.org/2000/svg">
<g filter="url(#filter0_d_307_2502)">
<g clip-path="url(#clip0_307_2502)">
<rect x="15" y="11" width="1040" height="366" rx="10" fill="url(#paint0_linear_307_2502)"/>
<path d="M675.254 614.945C635.038 529.815 563.857 294.419 652.311 246.567C740.686 198.758 977.426 451.962 1000.37 238.635C1021.92 38.2702 920.816 41.5733 1064.59 8.91281" stroke="black"/>
<path d="M675.254 614.945C635.038 529.815 563.857 294.419 652.311 246.567C740.686 198.758 977.426 451.962 1000.37 238.635C1021.92 38.2702 920.816 41.5733 1064.59 8.91281" stroke="#8FA592"/>
<path d="M678.707 624.57C638.491 539.44 567.31 304.044 655.764 256.192C744.139 208.383 980.88 461.587 1003.82 248.26C1025.37 47.8952 924.269 51.1983 1068.05 18.5378" stroke="black"/>
<path d="M678.707 624.57C638.491 539.44 567.31 304.044 655.764 256.192C744.139 208.383 980.88 461.587 1003.82 248.26C1025.37 47.8952 924.269 51.1983 1068.05 18.5378" stroke="#8FA592"/>
<path d="M682.152 634.197C641.937 549.067 570.755 313.671 659.209 265.819C747.584 218.01 984.325 471.214 1007.27 257.887C1028.81 57.5221 927.714 60.8253 1071.49 28.1648" stroke="black"/>
<path d="M682.152 634.197C641.937 549.067 570.755 313.671 659.209 265.819C747.584 218.01 984.325 471.214 1007.27 257.887C1028.81 57.5221 927.714 60.8253 1071.49 28.1648" stroke="#8FA592"/>
<path d="M685.606 643.82C645.39 558.69 574.209 323.294 662.662 275.442C751.038 227.633 987.778 480.837 1010.72 267.51C1032.27 67.1452 931.167 70.4483 1074.95 37.7878" stroke="black"/>
<path d="M685.606 643.82C645.39 558.69 574.209 323.294 662.662 275.442C751.038 227.633 987.778 480.837 1010.72 267.51C1032.27 67.1452 931.167 70.4483 1074.95 37.7878" stroke="#8FA592"/>
<path d="M689.059 653.447C648.843 568.317 577.662 332.921 666.115 285.069C754.491 237.26 991.231 490.464 1014.17 277.137C1035.72 76.7721 934.621 80.0753 1078.4 47.4148" stroke="black"/>
<path d="M689.059 653.447C648.843 568.317 577.662 332.921 666.115 285.069C754.491 237.26 991.231 490.464 1014.17 277.137C1035.72 76.7721 934.621 80.0753 1078.4 47.4148" stroke="#8FA592"/>
<path d="M692.52 663.072C652.304 577.942 581.123 342.546 669.576 294.694C757.952 246.885 994.692 500.089 1017.63 286.762C1039.18 86.3971 938.081 89.7003 1081.86 57.0398" stroke="black"/>
<path d="M692.52 663.072C652.304 577.942 581.123 342.546 669.576 294.694C757.952 246.885 994.692 500.089 1017.63 286.762C1039.18 86.3971 938.081 89.7003 1081.86 57.0398" stroke="#8FA592"/>
<path d="M695.965 672.699C655.749 587.569 584.568 352.173 673.022 304.321C761.397 256.511 998.137 509.716 1021.08 296.389C1042.63 96.0241 941.527 99.3272 1085.31 66.6667" stroke="black"/>
<path d="M695.965 672.699C655.749 587.569 584.568 352.173 673.022 304.321C761.397 256.511 998.137 509.716 1021.08 296.389C1042.63 96.0241 941.527 99.3272 1085.31 66.6667" stroke="#8FA592"/>
<path d="M699.418 682.324C659.202 597.194 588.021 361.798 676.475 313.946C764.85 266.136 1001.59 519.341 1024.53 306.014C1046.08 105.649 944.98 108.952 1088.76 76.2917" stroke="black"/>
<path d="M699.418 682.324C659.202 597.194 588.021 361.798 676.475 313.946C764.85 266.136 1001.59 519.341 1024.53 306.014C1046.08 105.649 944.98 108.952 1088.76 76.2917" stroke="#8FA592"/>
<path d="M703.254 688.033C663.038 602.903 591.857 367.507 680.311 319.655C768.686 271.845 1005.43 525.05 1028.37 311.723C1049.92 111.358 948.816 114.661 1092.59 82.0007" stroke="black"/>
<path d="M703.254 688.033C663.038 602.903 591.857 367.507 680.311 319.655C768.686 271.845 1005.43 525.05 1028.37 311.723C1049.92 111.358 948.816 114.661 1092.59 82.0007" stroke="#8FA592"/>
<path d="M706.707 697.658C666.491 612.528 595.31 377.132 683.764 329.28C772.139 281.47 1008.88 534.675 1031.82 321.348C1053.37 120.983 952.269 124.286 1096.05 91.6257" stroke="black"/>
<path d="M706.707 697.658C666.491 612.528 595.31 377.132 683.764 329.28C772.139 281.47 1008.88 534.675 1031.82 321.348C1053.37 120.983 952.269 124.286 1096.05 91.6257" stroke="#8FA592"/>
<path d="M710.152 707.285C669.937 622.155 598.755 386.758 687.209 338.907C775.584 291.097 1012.32 544.302 1035.27 330.975C1056.81 130.61 955.714 133.913 1099.49 101.253" stroke="black"/>
<path d="M710.152 707.285C669.937 622.155 598.755 386.758 687.209 338.907C775.584 291.097 1012.32 544.302 1035.27 330.975C1056.81 130.61 955.714 133.913 1099.49 101.253" stroke="#8FA592"/>
<path d="M713.606 716.908C673.39 631.778 602.209 396.382 690.662 348.53C779.038 300.72 1015.78 553.925 1038.72 340.598C1060.27 140.233 959.167 143.536 1102.95 110.876" stroke="black"/>
<path d="M713.606 716.908C673.39 631.778 602.209 396.382 690.662 348.53C779.038 300.72 1015.78 553.925 1038.72 340.598C1060.27 140.233 959.167 143.536 1102.95 110.876" stroke="#8FA592"/>
<path d="M717.059 726.535C676.843 641.405 605.662 406.008 694.115 358.157C782.491 310.347 1019.23 563.552 1042.17 350.225C1063.72 149.86 962.621 153.163 1106.4 120.503" stroke="black"/>
<path d="M717.059 726.535C676.843 641.405 605.662 406.008 694.115 358.157C782.491 310.347 1019.23 563.552 1042.17 350.225C1063.72 149.86 962.621 153.163 1106.4 120.503" stroke="#8FA592"/>
<path d="M720.52 736.16C680.304 651.03 609.123 415.633 697.576 367.782C785.952 319.972 1022.69 573.177 1045.63 359.85C1067.18 159.485 966.081 162.788 1109.86 130.128" stroke="black"/>
<path d="M720.52 736.16C680.304 651.03 609.123 415.633 697.576 367.782C785.952 319.972 1022.69 573.177 1045.63 359.85C1067.18 159.485 966.081 162.788 1109.86 130.128" stroke="#8FA592"/>
<path d="M723.965 745.787C683.749 660.657 612.568 425.26 701.022 377.409C789.397 329.599 1026.14 582.804 1049.08 369.477C1070.63 169.112 969.527 172.415 1113.31 139.755" stroke="black"/>
<path d="M723.965 745.787C683.749 660.657 612.568 425.26 701.022 377.409C789.397 329.599 1026.14 582.804 1049.08 369.477C1070.63 169.112 969.527 172.415 1113.31 139.755" stroke="#8FA592"/>
<path d="M727.418 755.412C687.202 670.282 616.021 434.885 704.475 387.034C792.85 339.224 1029.59 592.429 1052.53 379.102C1074.08 178.737 972.98 182.04 1116.76 149.38" stroke="black"/>
<path d="M727.418 755.412C687.202 670.282 616.021 434.885 704.475 387.034C792.85 339.224 1029.59 592.429 1052.53 379.102C1074.08 178.737 972.98 182.04 1116.76 149.38" stroke="#8FA592"/>
</g>
<rect x="15.5" y="11.5" width="1039" height="365" rx="9.5" stroke="#F3F4F6"/>
</g>
<defs>
<filter id="filter0_d_307_2502" x="0" y="0" width="1070" height="396" filterUnits="userSpaceOnUse" color-interpolation-filters="sRGB">
<feFlood flood-opacity="0" result="BackgroundImageFix"/>
<feColorMatrix in="SourceAlpha" type="matrix" values="0 0 0 0 0 0 0 0 0 0 0 0 0 0 0 0 0 0 127 0" result="hardAlpha"/>
<feOffset dy="4"/>
<feGaussianBlur stdDeviation="7.5"/>
<feComposite in2="hardAlpha" operator="out"/>
<feColorMatrix type="matrix" values="0 0 0 0 0.379711 0 0 0 0 0.466667 0 0 0 0 0.365556 0 0 0 0.15 0"/>
<feBlend mode="normal" in2="BackgroundImageFix" result="effect1_dropShadow_307_2502"/>
<feBlend mode="normal" in="SourceGraphic" in2="effect1_dropShadow_307_2502" result="shape"/>
</filter>
<linearGradient id="paint0_linear_307_2502" x1="146.5" y1="-167.146" x2="359.859" y2="544.61" gradientUnits="userSpaceOnUse">
<stop stop-color="#13C52A"/>
<stop offset="0.737019" stop-color="#1F2937"/>
</linearGradient>
<clipPath id="clip0_307_2502">
<rect x="15" y="11" width="1040" height="366" rx="10" fill="white"/>
</clipPath>
</defs>
</svg>
