<svg width="100" height="31" fill="none" xmlns="http://www.w3.org/2000/svg">
  <g clip-path="url(#a)" fill-rule="evenodd" clip-rule="evenodd" fill="#D1D5DB">
    <path d="M.242 15.51c.004 8.803 8.014 15.88 16.865 14.901 7.538-.833 13.542-7.4 13.542-14.813v-.356l-.569.023c-7.81.307-14.037 6.348-14.628 14.191-.011.146-.012.144-.018-.034C15.197 22.01 8.558 15.58.815 15.266l-.572-.024v.268Z"/>
    <path d="M14.31.105C12.183.24 9.867.943 7.975 2.026c-.612.35-.595.289-.193.687 4.023 3.986 7.375 11.9 7.627 18.007.03.743.068.64.093-.252.157-5.685 3.508-13.557 7.523-17.674.486-.499.499-.415-.118-.768C20.352.562 17.42-.093 14.309.105ZM3.447 5.924c-.7.875-1.403 2.054-1.922 3.225-.232.523-.737 1.925-.704 1.953.005.005.239.027.518.049 7.512.594 14.048 8.159 14.084 16.3 0 .08.014.139.03.129.016-.01.038-.343.049-.74.219-7.823 6.726-15.103 14.024-15.688.61-.049.575.014.352-.644-.579-1.713-1.36-3.183-2.41-4.533-.257-.331-.185-.32-.715-.106-5.838 2.365-10.671 9.876-11.307 17.572-.007.097-.012.077-.017-.068-.015-.513-.17-1.67-.33-2.457C13.715 14.103 9.214 7.929 4.13 5.869c-.527-.213-.463-.218-.682.055ZM44.626 7.02c-7.692.777-11.093 9.86-5.859 15.647 4.377 4.838 12.657 3.338 15.182-2.75 2.685-6.474-2.46-13.59-9.323-12.897Zm12.202.346c-.01.023-.012 4.046-.008 8.94l.009 8.898 1.992.01 1.991.008V7.323h-1.984c-1.556 0-1.988.01-2 .043Zm29.815 4.081c-1.286.127-2.39.787-3.047 1.824l-.106.167v-1.742h-3.627V25.221h3.794l.012-4.025c.013-4.393.002-4.152.208-4.698.622-1.654 3.22-1.845 3.728-.275.173.536.167.38.188 4.829l.02 4.152 1.955.01 1.957.008.011-3.975c.014-4.673.009-4.621.508-5.284.794-1.053 2.793-1.07 3.313-.03.323.647.315.522.33 5.195l.013 4.093H99.798l-.013-4.89c-.011-4.2-.02-4.93-.065-5.177-.394-2.193-1.697-3.419-3.909-3.678-1.803-.21-3.023.238-4.47 1.644-.422.41-.474.451-.508.395-.875-1.456-2.46-2.238-4.19-2.068Zm-41.814.059c-2.81.465-4.533 3.053-3.865 5.805 1.066 4.4 6.744 5.13 8.648 1.114 1.669-3.523-1.1-7.529-4.783-6.92Zm23.746.04c-5.342.842-7.603 7.512-3.934 11.604 2.244 2.503 6.113 2.893 8.467.853l.279-.241.01.721.008.721 1.941.01 1.94.008V11.696h-4v1.456l-.279-.291c-1.045-1.089-2.718-1.585-4.432-1.315Zm.915 3.57c-2.862.626-3.612 4.375-1.194 5.963 2.2 1.445 5.004.072 5.118-2.506.098-2.23-1.82-3.919-3.924-3.458Z"/>
  </g>
  <defs>
    <clipPath id="a">
      <path fill="#fff" d="M0 0h100v30.509H0z"/>
    </clipPath>
  </defs>
</svg>