<svg width="120" height="24" fill="none" xmlns="http://www.w3.org/2000/svg">
  <path fill-rule="evenodd" clip-rule="evenodd" d="M17.129 8.053c-1.157.675-2.161 1.247-2.232 1.272-.071.024.467 1.064 1.196 2.31.73 1.245 1.326 2.301 1.326 2.346 0 .046-1.191.1-2.647.122l-2.647.04v5.221l2.756.04 2.756.038 2.235-3.882a832.542 832.542 0 0 0 2.27-3.956c.055-.116-2.625-4.691-2.775-4.736-.074-.022-1.081.51-2.238 1.185Zm17.477 2.007c-.399.186-.823.457-.943.602-.203.247-.222.233-.29-.23l-.072-.496-1.56-.04-1.559-.042v9.592l1.56-.04 1.559-.042.072-2.632c.089-3.205.368-3.677 2.171-3.677h.585V9.719l-.399.001c-.22.001-.725.154-1.124.34Zm7.808-.081c-4 1.428-4.232 7.336-.36 9.145 1.723.804 4.432.419 5.84-.83l.621-.552-.786-.893c-.83-.944-1.006-1.033-1.311-.665-.914 1.102-3.124.99-3.807-.192l-.272-.472h6.371l.09-.564c.536-3.345-3.075-6.16-6.386-4.977Zm13.513-.057c-5.218 1.655-4.431 9.186 1.005 9.623 1.546.124 3.413-.457 4.349-1.354l.422-.405-1.003-.911c-1.103-1.003-1.206-1.045-1.569-.644-.96 1.06-3.231.379-3.5-1.051-.39-2.086 1.828-3.51 3.404-2.184.541.455.47.476 1.609-.482 1.13-.952 1.133-1.048.055-1.79-1.363-.938-3.31-1.265-4.772-.802Zm8.775.103c0 .089.783 2.032 1.74 4.317 2.036 4.861 1.915 4.082 1.016 6.545-.928 2.54-1.001 2.32.768 2.32h1.494l2.233-5.982c1.228-3.29 2.351-6.295 2.496-6.677l.263-.694-1.624.041-1.625.041-.847 2.386c-.466 1.312-.869 2.408-.896 2.435-.027.026-.464-1.063-.972-2.422l-.924-2.471h-1.56c-1.05 0-1.562.053-1.562.161Zm-21.103 2.263c-.383.092-1.042.721-1.137 1.084-.078.296 2.886.376 3.175.086.182-.182-.375-.855-.885-1.068-.504-.21-.65-.223-1.153-.102Z" fill="#D1D5DB"/>
  <path fill-rule="evenodd" clip-rule="evenodd" d="m8.775 9.175-2.197 3.803 2.25.04c1.237.022 3.22.022 4.408 0l2.16-.04-2.155-3.745c-1.185-2.06-2.18-3.771-2.212-3.803-.032-.031-1.046 1.654-2.254 3.745Z" fill="#D1D5DB"/>
  <path fill-rule="evenodd" clip-rule="evenodd" d="M6.46.181c-.455.574-2.65 4.66-2.55 4.745.22.188 4.252 2.471 4.362 2.47.06-.001.693-1.04 1.407-2.31 1.089-1.935 1.325-2.27 1.46-2.066.09.134.702 1.173 1.362 2.31.66 1.137 1.228 2.067 1.263 2.067.152 0 4.406-2.519 4.406-2.61 0-.116-2.42-4.334-2.642-4.606C15.415.044 14.325 0 10.99 0 7.653 0 6.568.043 6.459.181ZM90.535 12.258v7.18h3.046V5.077h-3.046v7.18ZM1.316 9.11C.57 10.435-.023 11.58.001 11.655c.023.075 1.035 1.855 2.248 3.957l2.205 3.82 2.792.003 2.792.002v-5.36l-2.681-.04-2.682-.039 1.304-2.308c.717-1.27 1.287-2.323 1.267-2.34-.02-.017-1.057-.62-2.304-1.339L2.675 6.704 1.316 9.11Zm79.429.803c-4.268 1.41-4.616 7.41-.54 9.277 1.617.74 4.5.303 5.835-.884l.605-.538-.92-.806c-1.22-1.07-1.212-1.067-1.69-.713-1.641 1.213-3.64.152-3.475-1.844.141-1.71 1.867-2.438 3.367-1.42.678.46.58.49 1.677-.505l.942-.854-.505-.524c-1.12-1.163-3.653-1.732-5.296-1.189Zm19.259.096c-1.152.301-1.637.517-1.637.728 0 .132.722 2.037.817 2.156.024.03.39-.094.81-.276 1.562-.676 3.159-.38 3.159.586 0 .234-.174.267-1.631.31-2.513.075-3.516.748-3.807 2.555-.431 2.678 2.472 4.454 4.927 3.015l.636-.373.047.327c.044.31.118.329 1.469.368l1.423.042-.045-3.74c-.05-4.129-.077-4.264-1.039-5.145-.93-.851-3.099-1.085-5.129-.553Zm15.043.003c-.359.167-.8.443-.979.61l-.327.307V9.864H110.546l.039 4.75.038 4.75 1.559.042 1.559.04v-2.692c0-3.516.276-4.206 1.679-4.206 1.223 0 1.283.164 1.367 3.738l.073 3.078 1.57.042 1.57.041-.047-3.672c-.07-5.45-1.637-7.29-4.906-5.762Zm-99.79 2.716.158.326h-4.438c-3.317 0-4.411-.042-4.334-.167.064-.104.04-.128-.064-.064-.518.32.14.376 4.402.376 2.512 0 4.568-.052 4.568-.117s-.101-.244-.225-.399c-.217-.27-.22-.268-.068.045Zm85.787 3.003c-.991.99.329 2.015 1.544 1.198.411-.276.5-.432.537-.942l.045-.612h-.885c-.747 0-.941.056-1.241.356Z" fill="#D1D5DB"/>
</svg>