<svg width="120" height="34" fill="none" xmlns="http://www.w3.org/2000/svg">
  <g clip-path="url(#a)" fill-rule="evenodd" clip-rule="evenodd" fill="#D1D5DB">
    <path d="M104.998 15.008c-.391.73-1.268 6.57-1.278 8.512-.006 1.078 3.252.3 4.417-1.055l1.025-1.191-.2 1.363c-.231 1.572.871 1.932 1.872.612.542-.714.57-.714.583 0 .02 1.07.984.927 2.152-.316.989-1.052 1.01-1.055 1.6-.213.476.679.768.763 1.43.409.993-.532 1.095-1.273.176-1.273-1.089 0-1.152-1.04-.225-3.678 1.438-4.092.778-5.209-.946-1.6-.824 1.724-3.956 5.214-5.05 5.627-.436.164.377-2.976.917-3.541.515-.54.5-2.808-.019-2.808-.224 0-.561.273-.75.606-.188.334-.879.67-1.534.75-1.413.171-1.598.912-.304 1.217.89.21.88.262-.406 2.036-1.399 1.932-3.547 2.646-3.22 1.07.086-.412.453-2.138.817-3.834.803-3.746.802-3.559.034-3.559-.345 0-.836.39-1.091.866Zm8.092 6.741c-.532.68-.517.695.162.162.714-.56.941-.912.588-.912-.088 0-.426.338-.75.75Zm4.769 1.393c0 .476.286.857.643.857.357 0 .643-.38.643-.857 0-.476-.286-.857-.643-.857-.357 0-.643.381-.643.857Zm-92.158 4.536c-.463 1.08-.842 2.14-.842 2.357 0 .639.863.448 1.13-.25.327-.85 1.3-.82 1.79.055.916 1.637 1.21.247.398-1.876-1.054-2.755-1.4-2.795-2.476-.286Zm8.742-1.322c.178.465-.047.643-.811.643-.95 0-1.058.178-1.058 1.715 0 .943.193 1.714.428 1.714.236 0 .429-.579.429-1.286 0-.707.193-1.285.428-1.285.236 0 .429.578.429 1.285s.193 1.286.429 1.286c.235 0 .428-1.06.428-2.357 0-1.438-.185-2.357-.474-2.357-.261 0-.364.289-.228.643Zm1.13 1.742v2.384l1.394-.134c1.736-.167 2.398-2.793.809-3.209-.472-.123-.961-.494-1.088-.825-.532-1.386-1.114-.454-1.114 1.784Zm9.858-.027c0 1.324.192 2.357.44 2.357.256 0 .407-.982.362-2.357-.043-1.297-.24-2.357-.44-2.357-.199 0-.362 1.06-.362 2.357Zm-16.256-.27c-.236.44-.33.9-.207 1.021.121.122.263.772.315 1.445.215 2.796 2.862 1.509 2.862-1.391 0-2.116-2.022-2.848-2.97-1.076Zm9.909.806c.142 1.728 2.148 2.619 2.972 1.32.296-.467.363-.468.368-.006.01.815 2.325.457 2.485-.384.07-.372-.314-.904-.854-1.18l-.981-.505 1.015.262c.74.19.962.103.821-.32-.106-.319-.657-.58-1.223-.58-1.407 0-1.641 1.375-.324 1.903.548.22.77.412.496.427-1.113.06-1.857-.549-1.857-1.52 0-1.4-.767-1.302-.936.12-.197 1.67-1.207 1.816-1.207.177 0-.727-.204-1.322-.454-1.322-.263 0-.398.677-.321 1.608Zm7.633.107c0 .943.192 1.714.428 1.714s.429-.579.429-1.286c0-.707.193-1.285.428-1.285.236 0 .429.578.429 1.285 0 .865.213 1.286.65 1.286.62 0 .612-.81-.03-2.893-.462-1.5-2.334-.555-2.334 1.179Zm3.514-1.2c-1.063 1.062-.28 2.914 1.233 2.914.396 0 1.014-.434 1.374-.964.612-.9.65-.908.588-.107-.05.637.236.891 1.112.992.737.085 1.179-.068 1.179-.407 0-.422.114-.428.514-.028 1.114 1.114 3.4.35 2.63-.879a2.72 2.72 0 0 1-.348-1.178c-.006-.397-.42-.643-1.082-.643-.84 0-1.064.21-1.036.976.02.537-.173.906-.427.822-.254-.085-.463-.521-.464-.97-.002-1.053-1.5-1.353-2.173-.434-.452.62-.543.624-.765.047-.3-.782-1.615-.862-2.335-.141Zm50.914.985c0 .825.193 1.5.429 1.5.235 0 .428-.231.428-.514 0-.4.115-.4.515 0 .677.677 1.339.662.928-.021-.247-.412-.179-.423.296-.047.691.545 2.976.658 2.976.146 0-.514-1.212-.851-1.987-.553-.487.186-.635.083-.482-.335.227-.628.463-.65 1.719-.162 1.144.446.893-.435-.307-1.077-.825-.442-1.193-.453-1.676-.052-.422.35-.708.37-.897.065-.702-1.135-1.942-.464-1.942 1.05Zm7.092-1.163c-.374.374-.272 1.022.122.779.197-.121.358.042.358.363 0 .336-.266.48-.63.34-.411-.157-.56-.031-.429.363.145.436.967.604 2.951.604 1.513 0 2.91.193 3.104.429.236.284.417.28.54-.011.106-.253 1.369-.395 2.967-.334l2.782.106v-1.248c0-1.444-.639-2.014-1.477-1.318-.438.364-.628.346-.768-.07-.148-.44-.318-.445-.824-.028-.459.379-.767.395-1.104.058-.62-.62-1.398-.097-1.398.941 0 .458-.193.832-.429.832-.426 0-.593-.584-.46-1.607.038-.294-.325-.536-.807-.536-.481 0-.876.205-.876.454 0 .258-.231.308-.535.115-.64-.405-2.756-.564-3.087-.232Zm-78.235 1.378c0 .552.217.856.536.75.295-.098.536-.436.536-.75s-.241-.652-.536-.75c-.319-.107-.536.197-.536.75Zm6.643-.429c-.312.506.093 1.286.668 1.286.222 0 .404-.386.404-.857 0-.904-.624-1.154-1.072-.429Zm80.391.25c.021.5.122.6.259.26.124-.31.108-.68-.034-.822-.142-.143-.243.11-.225.562Zm-66.114.9c.31.124.679.108.821-.034.142-.142-.11-.243-.562-.225-.5.02-.6.122-.259.259ZM61.299 5.647c-.478.783-.87 1.554-.87 1.71 0 .159-1.11.289-2.466.29-1.355.003-2.683.018-2.95.036-2.293.15-.559 3.031 1.824 3.031 1.032 0 1.876.1 1.876.223 0 .43-2.284 3.869-3.838 5.777-2.516 3.092-1.777 4.459.985 1.822 1.554-1.483 1.662-1.525 1.4-.536-1.759 6.646-.217 8.004 4.378 3.857 3.38-3.05 3.254-3.026 4.36-.857 1.138 2.23 2.922 2.365 5.384.409l1.643-1.307.61 1.2c.336.659.998 1.623 1.471 2.142l.86.944-1.147 1.363c-3.644 4.331-3.77 8.108-.27 8.105 4.506-.005 7.696-5.072 5.754-9.142-.529-1.11-.583-1.652-.227-2.265.39-.672.47-.69.481-.108.043 2.3 2.488 2.005 5.452-.66l2.113-1.9.465 1.233c.867 2.295 3.832 1.99 5.44-.56.661-1.046-.3-1.95-1.243-1.168-.886.735-1.403.175-1.576-1.711-.207-2.251-1.254-2.13-4.327.498-3.223 2.757-2.497 1.714 1.725-2.477 3.263-3.24 3.832-4.453 2.087-4.453-1.606 0-8.57 5.736-11.284 9.294l-1.157 1.517-.981-1.227c-1.101-1.375-1.317-3.782-.387-4.313.996-.568 4.543-5.096 4.543-5.798 0-3.156-3.95-.773-6.857 4.137-2.146 3.625-4.729 5.978-5.389 4.91-.164-.265-.522-1.36-.795-2.43-.857-3.36-1.522-3.325-5.069.274-3.652 3.706-3.827 3.535-2.439-2.389.733-3.126 1.144-4.136 1.75-4.294.688-.18.778-.602.688-3.23-.119-3.493-.72-4.074-2.017-1.947Zm5.761 1.406c-1.01.982-1.484 1.772-1.319 2.203.142.37.258.752.258.85 0 .542 2.544.063 3.134-.589 2.36-2.607.433-4.897-2.073-2.464Zm8.458 21.361c-1.567 2.585-1.7 3.3-.615 3.3 1.957 0 3.752-2.712 3.05-4.609-.523-1.415-.91-1.208-2.435 1.309Z"/>
    <path d="M2.144.56C.924.976.57 1.37.248 2.675c-.526 2.13-.243 2.298 2.547 1.522 2.856-.795 2.909-.729 2.353 2.954C3.843 15.798 3.868 24 5.197 24c1.02 0 1.117-.285 1.428-4.163.137-1.7.717-5.576 1.29-8.613 1.02-5.418 1.04-7.36.072-7.373-.285-.004-.242-.162.104-.38.325-.207 1.337-.275 2.25-.152 2.04.273 2.676-2.519.696-3.05C9.409-.165 3.73.02 2.144.56Zm13.465 9.712c-1.362.551-3.098 2.847-3.67 4.854-.283.992-.793 2.132-1.134 2.535-.773.914-.367 2.99.519 2.65.358-.137.713.128.881.659.93 2.925 4.164 2.165 8.422-1.978 1.822-1.773 3.52-3.096 3.772-2.94.677.419.558 2.968-.23 4.939-1.898 4.742 1.694 3.686 7.881-2.32 3.925-3.808 4.814-3.303 3.279 1.866-1.14 3.836-.38 4.31 3.163 1.976 1.241-.817 2.135-1.289 1.985-1.047-.149.242-.153.91-.008 1.487.493 1.967 2.508 1.274 6.14-2.11 1.304-1.215 1.392-1.238 1.392-.38 0 .997 1.467 2.251 2.634 2.251 1.236 0 3.313-2.038 3.06-3.003-.24-.923-.77-1.111-1.194-.425-.657 1.062-1.456.36-1.583-1.39-.188-2.593-1.119-2.568-4.213.113-3.717 3.22-3.139 2.165 1.113-2.03 3.576-3.527 4.234-4.836 2.435-4.836-1.203 0-2.46.965-9.965 7.644-2.277 2.026-2.43 1.98-1.731-.516 1.09-3.895-1.88-7.511-4.603-5.604-.525.367-.953 1.037-.953 1.487 0 .864-5.44 6.692-5.856 6.275-.134-.133-.028-.86.235-1.614.8-2.295.579-3.67-.852-5.3-1.867-2.126-4.274-1.642-4.807.965-.37 1.813-3.748 4.868-5.474 4.95-2.04.1-2.044-.89-.01-3.352 2.07-2.503 2.463-3.815 1.56-5.195-.73-1.114-.857-1.15-2.188-.61Zm-.946 4.313c-.767 1.23-.631 1.623.167.483.378-.54.612-1.056.52-1.148-.092-.092-.4.207-.687.665Z"/>
  </g>
  <defs>
    <clipPath id="a">
      <path fill="#fff" d="M0 0h120v33.857H0z"/>
    </clipPath>
  </defs>
</svg>