<svg width="507" height="366" viewBox="0 0 507 366" fill="none" xmlns="http://www.w3.org/2000/svg">
<path d="M127.254 603.945C87.0381 518.815 15.857 283.419 104.311 235.567C192.686 187.758 429.426 440.962 452.368 227.635C473.916 27.2702 372.816 30.5733 516.594 -2.08719" stroke="black"/>
<path d="M127.254 603.945C87.0381 518.815 15.857 283.419 104.311 235.567C192.686 187.758 429.426 440.962 452.368 227.635C473.916 27.2702 372.816 30.5733 516.594 -2.08719" stroke="#8FA592"/>
<path d="M130.707 613.57C90.4912 528.44 19.3102 293.044 107.764 245.192C196.139 197.383 432.88 450.587 455.821 237.26C477.369 36.8952 376.269 40.1983 520.047 7.53781" stroke="black"/>
<path d="M130.707 613.57C90.4912 528.44 19.3102 293.044 107.764 245.192C196.139 197.383 432.88 450.587 455.821 237.26C477.369 36.8952 376.269 40.1983 520.047 7.53781" stroke="#8FA592"/>
<path d="M134.152 623.197C93.9366 538.067 22.7555 302.671 111.209 254.819C199.584 207.01 436.325 460.214 459.267 246.887C480.814 46.5221 379.714 49.8253 523.493 17.1648" stroke="black"/>
<path d="M134.152 623.197C93.9366 538.067 22.7555 302.671 111.209 254.819C199.584 207.01 436.325 460.214 459.267 246.887C480.814 46.5221 379.714 49.8253 523.493 17.1648" stroke="#8FA592"/>
<path d="M137.606 632.82C97.3897 547.69 26.2086 312.294 114.662 264.442C203.038 216.633 439.778 469.837 462.72 256.51C484.267 56.1452 383.167 59.4483 526.946 26.7878" stroke="black"/>
<path d="M137.606 632.82C97.3897 547.69 26.2086 312.294 114.662 264.442C203.038 216.633 439.778 469.837 462.72 256.51C484.267 56.1452 383.167 59.4483 526.946 26.7878" stroke="#8FA592"/>
<path d="M141.059 642.447C100.843 557.317 29.6617 321.921 118.115 274.069C206.491 226.26 443.231 479.464 466.173 266.137C487.721 65.7721 386.621 69.0753 530.399 36.4148" stroke="black"/>
<path d="M141.059 642.447C100.843 557.317 29.6617 321.921 118.115 274.069C206.491 226.26 443.231 479.464 466.173 266.137C487.721 65.7721 386.621 69.0753 530.399 36.4148" stroke="#8FA592"/>
<path d="M144.52 652.072C104.304 566.942 33.1227 331.546 121.576 283.694C209.952 235.885 446.692 489.089 469.634 275.762C491.182 75.3971 390.081 78.7003 533.86 46.0398" stroke="black"/>
<path d="M144.52 652.072C104.304 566.942 33.1227 331.546 121.576 283.694C209.952 235.885 446.692 489.089 469.634 275.762C491.182 75.3971 390.081 78.7003 533.86 46.0398" stroke="#8FA592"/>
<path d="M147.965 661.699C107.749 576.569 36.568 341.173 125.022 293.321C213.397 245.511 450.137 498.716 473.079 285.389C494.627 85.0241 393.527 88.3272 537.305 55.6667" stroke="black"/>
<path d="M147.965 661.699C107.749 576.569 36.568 341.173 125.022 293.321C213.397 245.511 450.137 498.716 473.079 285.389C494.627 85.0241 393.527 88.3272 537.305 55.6667" stroke="#8FA592"/>
<path d="M151.418 671.324C111.202 586.194 40.0211 350.798 128.475 302.946C216.85 255.136 453.59 508.341 476.532 295.014C498.08 94.6491 396.98 97.9522 540.758 65.2917" stroke="black"/>
<path d="M151.418 671.324C111.202 586.194 40.0211 350.798 128.475 302.946C216.85 255.136 453.59 508.341 476.532 295.014C498.08 94.6491 396.98 97.9522 540.758 65.2917" stroke="#8FA592"/>
<path d="M155.254 677.033C115.038 591.903 43.857 356.507 132.311 308.655C220.686 260.845 457.426 514.05 480.368 300.723C501.916 100.358 400.816 103.661 544.594 71.0007" stroke="black"/>
<path d="M155.254 677.033C115.038 591.903 43.857 356.507 132.311 308.655C220.686 260.845 457.426 514.05 480.368 300.723C501.916 100.358 400.816 103.661 544.594 71.0007" stroke="#8FA592"/>
<path d="M158.707 686.658C118.491 601.528 47.3102 366.132 135.764 318.28C224.139 270.47 460.88 523.675 483.821 310.348C505.369 109.983 404.269 113.286 548.047 80.6257" stroke="black"/>
<path d="M158.707 686.658C118.491 601.528 47.3102 366.132 135.764 318.28C224.139 270.47 460.88 523.675 483.821 310.348C505.369 109.983 404.269 113.286 548.047 80.6257" stroke="#8FA592"/>
<path d="M162.152 696.285C121.937 611.155 50.7555 375.758 139.209 327.907C227.584 280.097 464.325 533.302 487.267 319.975C508.814 119.61 407.714 122.913 551.493 90.2527" stroke="black"/>
<path d="M162.152 696.285C121.937 611.155 50.7555 375.758 139.209 327.907C227.584 280.097 464.325 533.302 487.267 319.975C508.814 119.61 407.714 122.913 551.493 90.2527" stroke="#8FA592"/>
<path d="M165.606 705.908C125.39 620.778 54.2086 385.382 142.662 337.53C231.038 289.72 467.778 542.925 490.72 329.598C512.267 129.233 411.167 132.536 554.946 99.8757" stroke="black"/>
<path d="M165.606 705.908C125.39 620.778 54.2086 385.382 142.662 337.53C231.038 289.72 467.778 542.925 490.72 329.598C512.267 129.233 411.167 132.536 554.946 99.8757" stroke="#8FA592"/>
<path d="M169.059 715.535C128.843 630.405 57.6617 395.008 146.115 347.157C234.491 299.347 471.231 552.552 494.173 339.225C515.721 138.86 414.621 142.163 558.399 109.503" stroke="black"/>
<path d="M169.059 715.535C128.843 630.405 57.6617 395.008 146.115 347.157C234.491 299.347 471.231 552.552 494.173 339.225C515.721 138.86 414.621 142.163 558.399 109.503" stroke="#8FA592"/>
<path d="M172.52 725.16C132.304 640.03 61.1227 404.633 149.576 356.782C237.952 308.972 474.692 562.177 497.634 348.85C519.182 148.485 418.081 151.788 561.86 119.128" stroke="black"/>
<path d="M172.52 725.16C132.304 640.03 61.1227 404.633 149.576 356.782C237.952 308.972 474.692 562.177 497.634 348.85C519.182 148.485 418.081 151.788 561.86 119.128" stroke="#8FA592"/>
<path d="M175.965 734.787C135.749 649.657 64.568 414.26 153.022 366.409C241.397 318.599 478.137 571.804 501.079 358.477C522.627 158.112 421.527 161.415 565.305 128.755" stroke="black"/>
<path d="M175.965 734.787C135.749 649.657 64.568 414.26 153.022 366.409C241.397 318.599 478.137 571.804 501.079 358.477C522.627 158.112 421.527 161.415 565.305 128.755" stroke="#8FA592"/>
<path d="M179.418 744.412C139.202 659.282 68.0211 423.885 156.475 376.034C244.85 328.224 481.59 581.429 504.532 368.102C526.08 167.737 424.98 171.04 568.758 138.38" stroke="black"/>
<path d="M179.418 744.412C139.202 659.282 68.0211 423.885 156.475 376.034C244.85 328.224 481.59 581.429 504.532 368.102C526.08 167.737 424.98 171.04 568.758 138.38" stroke="#8FA592"/>
</svg>
