<svg width="50" height="50" viewBox="0 0 50 50" fill="none" xmlns="http://www.w3.org/2000/svg">
<rect width="50" height="50" rx="25" fill="#F0FDF4"/>
<path fill-rule="evenodd" clip-rule="evenodd" d="M31.9954 33.0434C31.9954 33.9409 31.2678 34.6684 30.3704 34.6684L16.5818 34.6684C15.6843 34.6684 14.9568 33.9409 14.9568 33.0434L14.9568 19.2548C14.9568 18.3573 15.6843 17.6298 16.5818 17.6298C17.4792 17.6298 18.2068 18.3573 18.2068 19.2548L18.2068 29.1203L31.5194 15.8077C32.154 15.1731 33.1829 15.1731 33.8175 15.8077C34.4521 16.4423 34.4521 17.4712 33.8175 18.1058L20.5049 31.4184L30.3704 31.4184C31.2678 31.4184 31.9954 32.1459 31.9954 33.0434Z" fill="#3AB44A"/>
</svg>
