<svg width="50" height="50" viewBox="0 0 50 50" fill="none" xmlns="http://www.w3.org/2000/svg">
<rect width="50" height="50" rx="25" fill="#F0FDF4"/>
<path fill-rule="evenodd" clip-rule="evenodd" d="M17.6296 16.9566C17.6296 16.0592 18.3572 15.3316 19.2546 15.3316L33.0432 15.3316C33.9407 15.3316 34.6682 16.0592 34.6682 16.9566L34.6682 30.7452C34.6682 31.6427 33.9407 32.3702 33.0432 32.3702C32.1458 32.3702 31.4182 31.6427 31.4182 30.7452L31.4182 20.8797L18.1056 34.1924C17.471 34.827 16.4421 34.827 15.8075 34.1924C15.1729 33.5578 15.1729 32.5289 15.8075 31.8943L29.1201 18.5816L19.2546 18.5816C18.3572 18.5816 17.6296 17.8541 17.6296 16.9566Z" fill="#3AB44A"/>
</svg>
