<svg width="64" height="65" fill="none" xmlns="http://www.w3.org/2000/svg">
  <path fill-rule="evenodd" clip-rule="evenodd" d="M21.701 5.834h20.575c8.569 0 13.7 5.204 13.724 13.893v25.548c0 8.689-5.109 13.892-13.701 13.892h-7.617a1.945 1.945 0 0 1-1.716-1.942c0-.997.74-1.834 1.716-1.943h7.594c6.548 0 9.846-3.367 9.846-10.007V19.727c0-6.64-3.298-10.008-9.846-10.008H21.7c-6.549 0-9.87 3.367-9.87 10.008v25.548c0 6.64 3.321 10.007 9.87 10.007.977.11 1.716.946 1.716 1.943 0 .996-.74 1.833-1.716 1.942C13.132 59.167 8 53.964 8 45.275V19.727c0-8.713 5.132-13.893 13.701-13.893Zm.674 17.33h7.314a1.945 1.945 0 0 0 1.717-1.942c0-.997-.74-1.834-1.717-1.943h-7.314a1.945 1.945 0 0 0-1.717 1.943c0 .996.74 1.833 1.716 1.942Zm19.204 11.28H22.351a1.945 1.945 0 0 1-1.716-1.943c0-.997.74-1.834 1.716-1.943H41.58a1.919 1.919 0 0 1 1.844.904 1.978 1.978 0 0 1 0 2.077 1.919 1.919 0 0 1-1.844.904Zm0 11.278H22.351c-1.051 0-1.904-.864-1.904-1.93 0-1.067.853-1.931 1.904-1.931H41.58c1.052 0 1.904.864 1.904 1.93 0 1.067-.852 1.931-1.904 1.931Z" fill="#374151"/>
</svg>