<svg width="64" height="64" fill="none" xmlns="http://www.w3.org/2000/svg">
  <path fill-rule="evenodd" clip-rule="evenodd" d="M61.067 12.756c0-1.969-.816-3.858-2.264-5.25a7.913 7.913 0 0 0-5.47-2.174H10.668c-2.05 0-4.019.783-5.47 2.173-1.447 1.393-2.263 3.282-2.263 5.251v40.96c0 1.969.816 3.858 2.264 5.25a7.913 7.913 0 0 0 5.469 2.174h42.667c2.05 0 4.018-.783 5.469-2.173 1.448-1.393 2.264-3.282 2.264-5.251v-40.96Zm-2.611 0v40.96c-.163 2.462-1.23 2.914-2.484 3.922-.894.618-1.86.723-2.638.723H10.667c-2.824 0-3.852-1.62-4.402-2.147-.549-.527-.606-1.75-.606-2.498v-40.96c0-1.453 1.635-2.808 2.184-3.336 1.447-1.388 3.143-1.154 3.922-1.154h41.569c1.568 0 2.98.627 3.529 1.154.55.528 1.593 1.883 1.593 3.336Z" fill="#6B7280"/>
  <path fill-rule="evenodd" clip-rule="evenodd" d="M24.074 40.574v-18.44c0-1.145-.836-2.074-1.882-2.074-1.046 0-1.883.93-1.883 2.075v18.439c0 1.146.837 2.074 1.883 2.074s1.882-.928 1.882-2.074Z" fill="#6B7280"/>
  <path fill-rule="evenodd" clip-rule="evenodd" d="m22.193 20.602-2.646 2.701c-.7.698-1.81.698-2.49 0a1.81 1.81 0 0 1 0-2.52l3.89-3.963a1.744 1.744 0 0 1 2.491 0l3.891 3.963a1.81 1.81 0 0 1 0 2.52c-.7.698-1.81.698-2.49 0l-2.646-2.7ZM42.898 40.228V18.716c0-1.337-.836-2.42-1.882-2.42-1.046 0-1.882 1.083-1.882 2.42v21.512c0 1.337.836 2.42 1.882 2.42 1.046 0 1.882-1.083 1.882-2.42Z" fill="#6B7280"/>
  <path fill-rule="evenodd" clip-rule="evenodd" d="m41.017 20.602-2.646 2.701c-.7.698-1.81.698-2.49 0a1.81 1.81 0 0 1 0-2.52l3.89-3.963a1.744 1.744 0 0 1 2.491 0l3.891 3.963a1.81 1.81 0 0 1 0 2.52c-.7.698-1.81.698-2.49 0l-2.646-2.7ZM17.44 50.179H46.56c1.315 0 2.382-.843 2.382-1.883s-1.067-1.882-2.382-1.882H17.44c-1.316 0-2.382.843-2.382 1.882 0 1.04 1.066 1.883 2.382 1.883Z" fill="#6B7280"/>
</svg>