<svg width="64" height="65" fill="none" xmlns="http://www.w3.org/2000/svg">
  <path fill-rule="evenodd" clip-rule="evenodd" d="M11.592 23.865c0 1.099-.912 1.993-2.032 1.993s-2.029-.894-2.029-1.993v-4.957c0-5.733 4.755-10.4 10.598-10.405l4.343-.003h.003c1.12 0 2.03.892 2.03 1.993 0 1.098-.907 1.99-2.03 1.99l-4.341.002c-3.608.005-6.542 2.885-6.542 6.422v4.958Zm30.011-11.383h4.248c3.62 0 6.563 2.887 6.563 6.435v4.95c0 1.096.91 1.99 2.03 1.99 1.12 0 2.029-.894 2.029-1.99v-4.95c0-5.745-4.763-10.415-10.622-10.415h-4.248c-1.12 0-2.029.889-2.029 1.99 0 1.098.91 1.99 2.03 1.99ZM59.305 32.61H4.697c-1.117 0-2.029.892-2.029 1.992 0 1.099.912 1.99 2.03 1.99h2.831v9.498c0 5.734 4.758 10.402 10.603 10.407l4.341.003c1.123 0 2.03-.892 2.032-1.993 0-1.098-.909-1.99-2.029-1.99l-4.341-.002c-3.608-.005-6.544-2.885-6.544-6.425v-9.498h40.824v9.49c0 3.551-2.944 6.435-6.563 6.435h-4.248c-1.12 0-2.03.892-2.03 1.99 0 1.101.91 1.993 2.03 1.993h4.248c5.856 0 10.621-4.67 10.621-10.418v-9.49h2.832c1.12 0 2.03-.891 2.03-1.99 0-1.1-.91-1.992-2.03-1.992Zm-32.259-6.752h9.912c1.123 0 2.032-.894 2.032-1.993 0-1.098-.91-1.99-2.032-1.99h-9.912c-1.12 0-2.03.892-2.03 1.99 0 1.099.91 1.993 2.03 1.993Zm0 16.706h9.913c1.12 0 2.03.892 2.03 1.99 0 1.1-.91 1.99-2.03 1.99h-9.912c-1.123 0-2.032-.89-2.032-1.99 0-1.098.91-1.99 2.032-1.99Z" fill="#374151"/>
</svg>