<svg width="20" height="18" viewBox="0 0 20 18" fill="none" xmlns="http://www.w3.org/2000/svg">
<path d="M7.91094 15.2402C7.91094 16.2343 7.10505 17.0402 6.11094 17.0402C5.11682 17.0402 4.31094 16.2343 4.31094 15.2402C4.31094 14.2461 5.11682 13.4402 6.11094 13.4402C7.10505 13.4402 7.91094 14.2461 7.91094 15.2402Z" fill="#F9FAFB"/>
<path d="M16.3109 15.2402C16.3109 16.2343 15.505 17.0402 14.5109 17.0402C13.5168 17.0402 12.7109 16.2343 12.7109 15.2402C12.7109 14.2461 13.5168 13.4402 14.5109 13.4402C15.505 13.4402 16.3109 14.2461 16.3109 15.2402Z" fill="#F9FAFB"/>
<path d="M1.91094 0.240234C1.2482 0.240234 0.710938 0.777493 0.710938 1.44023V13.4402C0.710938 14.103 1.2482 14.6402 1.91094 14.6402H3.17095C3.44891 13.2709 4.65956 12.2402 6.11094 12.2402C7.56231 12.2402 8.77296 13.2709 9.05093 14.6402H10.3109C10.9737 14.6402 11.5109 14.103 11.5109 13.4402V1.44023C11.5109 0.777493 10.9737 0.240234 10.3109 0.240234H1.91094Z" fill="#F9FAFB"/>
<path d="M15.1109 3.84023C14.4482 3.84023 13.9109 4.37749 13.9109 5.04023V12.3002C14.1048 12.2609 14.3055 12.2402 14.5109 12.2402C15.9623 12.2402 17.173 13.2709 17.4509 14.6402H18.7109C19.3737 14.6402 19.9109 14.103 19.9109 13.4402V7.44023C19.9109 7.12197 19.7845 6.81675 19.5595 6.59171L17.1595 4.19171C16.9344 3.96666 16.6292 3.84023 16.3109 3.84023H15.1109Z" fill="#F9FAFB"/>
</svg>
