<svg width="20" height="15" fill="none" xmlns="http://www.w3.org/2000/svg">
  <rect x=".25" y=".75" width="19.1" height="13.5" rx="1.75" fill="#fff" stroke="#F5F5F5" stroke-width=".5"/>
  <mask id="a" style="mask-type:luminance" maskUnits="userSpaceOnUse" x="0" y="0" width="20" height="15">
    <rect x=".25" y=".75" width="19.1" height="13.5" rx="1.75" fill="#fff" stroke="#fff" stroke-width=".5"/>
  </mask>
  <g mask="url(#a)" fill="#FF3131">
    <path d="M14 .5h5.6v14H14z"/>
    <path fill-rule="evenodd" clip-rule="evenodd" d="M0 14.5h5.6V.5H0v14ZM11.45 6.783a.307.307 0 0 1-.518-.277l.268-1.34-.933.466-.467-1.4-.467 1.4-.933-.466.268 1.34a.307.307 0 0 1-.518.277.307.307 0 0 0-.434 0l-.25.25-.933-.467.467.933-.231.231a.333.333 0 0 0 0 .471l1.164 1.165h1.4l.234 1.4h.466l.234-1.4h1.4L12.83 8.2a.333.333 0 0 0 0-.471L12.6 7.5l.466-.934-.933.466-.25-.25a.307.307 0 0 0-.433 0Z"/>
  </g>
</svg>