<svg width="70" height="70" viewBox="0 0 70 70" fill="none" xmlns="http://www.w3.org/2000/svg">
<circle cx="35" cy="35" r="35" fill="#F0FDF4"/>
<path d="M20.75 30.2899L34.25 38.0899C34.478 38.2216 34.7367 38.2909 35 38.2909C35.2633 38.2909 35.522 38.2216 35.75 38.0899L49.25 30.2899C49.4767 30.1591 49.6652 29.9711 49.7968 29.7448C49.9284 29.5185 49.9984 29.2617 50 28.9999C50.001 28.7356 49.9322 28.4757 49.8005 28.2466C49.6688 28.0174 49.4789 27.8271 49.25 27.6949L35.75 19.9099C35.522 19.7783 35.2633 19.709 35 19.709C34.7367 19.709 34.478 19.7783 34.25 19.9099L20.75 27.6949C20.5211 27.8271 20.3312 28.0174 20.1995 28.2466C20.0678 28.4757 19.999 28.7356 20 28.9999C20.0016 29.2617 20.0716 29.5185 20.2032 29.7448C20.3348 29.9711 20.5233 30.1591 20.75 30.2899V30.2899ZM35 22.9999L45.5 28.9999L35 34.9999L24.5 28.9999L35 22.9999ZM47.75 33.7549L35 40.9999L22.25 33.6949C22.0788 33.5958 21.8897 33.5314 21.6935 33.5057C21.4973 33.4799 21.298 33.4932 21.107 33.5448C20.916 33.5964 20.7371 33.6852 20.5805 33.8062C20.424 33.9273 20.293 34.0781 20.195 34.2499C19.9994 34.5944 19.948 35.0022 20.052 35.3843C20.156 35.7665 20.4069 36.0921 20.75 36.2899L34.25 44.0899C34.478 44.2216 34.7367 44.2909 35 44.2909C35.2633 44.2909 35.522 44.2216 35.75 44.0899L49.25 36.2899C49.5931 36.0921 49.844 35.7665 49.948 35.3843C50.052 35.0022 50.0006 34.5944 49.805 34.2499C49.707 34.0781 49.576 33.9273 49.4195 33.8062C49.2629 33.6852 49.084 33.5964 48.893 33.5448C48.702 33.4932 48.5027 33.4799 48.3065 33.5057C48.1103 33.5314 47.9212 33.5958 47.75 33.6949V33.7549ZM47.75 39.7549L35 46.9999L22.25 39.6949C22.0788 39.5958 21.8897 39.5314 21.6935 39.5057C21.4973 39.4799 21.298 39.4932 21.107 39.5448C20.916 39.5964 20.7371 39.6852 20.5805 39.8062C20.424 39.9273 20.293 40.0781 20.195 40.2499C19.9994 40.5944 19.948 41.0022 20.052 41.3843C20.156 41.7665 20.4069 42.0921 20.75 42.2899L34.25 50.0899C34.478 50.2216 34.7367 50.2909 35 50.2909C35.2633 50.2909 35.522 50.2216 35.75 50.0899L49.25 42.2899C49.5931 42.0921 49.844 41.7665 49.948 41.3843C50.052 41.0022 50.0006 40.5944 49.805 40.2499C49.707 40.0781 49.576 39.9273 49.4195 39.8062C49.2629 39.6852 49.084 39.5964 48.893 39.5448C48.702 39.4932 48.5027 39.4799 48.3065 39.5057C48.1103 39.5314 47.9212 39.5958 47.75 39.6949V39.7549Z" fill="#3AB44A"/>
</svg>
