<svg width="32" height="32" viewBox="0 0 32 32" fill="none" xmlns="http://www.w3.org/2000/svg">
<rect width="32" height="32" rx="16" fill="#D0E4FF" fill-opacity="0.3"/>
<path fill-rule="evenodd" clip-rule="evenodd" d="M16.0003 7.66669H16.0281C19.9334 7.68203 23.0989 10.8683 23.0835 14.7686V14.8461C23.0309 17.6334 21.3552 19.9464 19.959 21.3955C19.5617 21.8099 19.1387 22.2075 18.7026 22.5787C18.4414 22.8016 18.0492 22.7709 17.826 22.51C17.6028 22.2484 17.6343 21.8567 17.8955 21.6338C18.2994 21.2896 18.6924 20.9198 19.0619 20.5346C20.3044 19.2455 21.7942 17.2073 21.8396 14.8234C21.852 11.5487 19.2434 8.92147 16.023 8.90832H16.0003C12.7908 8.90832 10.1734 11.51 10.161 14.7175C10.2158 16.3018 10.7515 17.808 11.7108 19.0716C12.8304 20.5624 14.5287 22.1409 16.143 23.1918C16.4313 23.3789 16.5125 23.7633 16.3244 24.0513C16.2059 24.234 16.0061 24.3334 15.8027 24.3334C15.6864 24.3334 15.5693 24.3012 15.4639 24.2325C13.7355 23.1078 11.9164 21.4167 10.7171 19.8199C9.6041 18.3532 8.98139 16.6029 8.91699 14.7606C8.93236 10.8216 12.1074 7.66669 16.0003 7.66669ZM14.5463 14.8451C14.5463 15.6439 15.1975 16.295 15.9981 16.295C16.7986 16.295 17.4499 15.6439 17.4499 14.8451C17.4499 14.0456 16.7986 13.3945 15.9981 13.3945C15.6549 13.3945 15.3761 13.1168 15.3761 12.774C15.3761 12.4306 15.6549 12.1529 15.9981 12.1529C17.4842 12.1529 18.6938 13.3601 18.6938 14.8451C18.6938 16.3294 17.4842 17.5367 15.9981 17.5367C14.5119 17.5367 13.3023 16.3294 13.3023 14.8451C13.3023 14.5017 13.5811 14.224 13.9243 14.224C14.2675 14.224 14.5463 14.5017 14.5463 14.8451Z" fill="#092593"/>
</svg>
