<svg width="18" height="21" viewBox="0 0 18 21" fill="none" xmlns="http://www.w3.org/2000/svg">
<path d="M8.05156 0.84082C6.72608 0.84082 5.65156 1.91534 5.65156 3.24082V12.8408C5.65156 14.1663 6.72608 15.2408 8.05156 15.2408H15.2516C16.577 15.2408 17.6516 14.1663 17.6516 12.8408V6.13788C17.6516 5.50136 17.3987 4.89091 16.9486 4.44082L14.0516 1.54376C13.6015 1.09368 12.991 0.84082 12.3545 0.84082H8.05156Z" fill="#F9FAFB"/>
<path d="M0.851562 8.04082C0.851562 6.71534 1.92608 5.64082 3.25156 5.64082V17.6408H12.8516C12.8516 18.9663 11.777 20.0408 10.4516 20.0408H3.25156C1.92608 20.0408 0.851562 18.9663 0.851562 17.6408V8.04082Z" fill="#F9FAFB"/>
</svg>
