<svg width="92" height="80" viewBox="0 0 92 80" fill="none" xmlns="http://www.w3.org/2000/svg">
<path fill-rule="evenodd" clip-rule="evenodd" d="M42.387 15.8214C43.4245 12.6743 46.8168 10.9641 49.9639 12.0017L63.0295 16.3092C64.5408 16.8075 65.7923 17.8857 66.5086 19.3067L73.0291 32.2413C73.7455 33.6623 73.868 35.3096 73.3697 36.8209L65.3049 61.2831C64.2673 64.4302 60.875 66.1403 57.7279 65.1027L34.9347 57.5881C31.7876 56.5506 30.0775 53.1583 31.1151 50.0112L42.387 15.8214ZM42.4493 34.7949C42.9681 33.2214 44.6643 32.3663 46.2378 32.8851L63.3327 38.521C64.9062 39.0398 65.7613 40.736 65.2425 42.3095C64.7238 43.8831 63.0276 44.7381 61.4541 44.2193L44.3591 38.5834C42.7856 38.0646 41.9305 36.3685 42.4493 34.7949ZM42.4805 44.2817C40.9069 43.7629 39.2108 44.618 38.692 46.1915C38.1732 47.7651 39.0283 49.4612 40.6018 49.98L57.6968 55.616C59.2703 56.1347 60.9665 55.2797 61.4852 53.7061C62.004 52.1326 61.1489 50.4364 59.5754 49.9177L42.4805 44.2817Z" fill="#C49700"/>
<path fill-rule="evenodd" clip-rule="evenodd" d="M12.2656 31.4531C12.2656 28.1394 14.9519 25.4531 18.2656 25.4531H32.023C33.6143 25.4531 35.1404 26.0853 36.2656 27.2105L46.5083 37.4531C47.6335 38.5783 48.2656 40.1045 48.2656 41.6958V67.4531C48.2656 70.7668 45.5793 73.4531 42.2656 73.4531H18.2656C14.9519 73.4531 12.2656 70.7668 12.2656 67.4531V31.4531ZM18.2656 49.4531C18.2656 47.7963 19.6088 46.4531 21.2656 46.4531H39.2656C40.9225 46.4531 42.2656 47.7963 42.2656 49.4531C42.2656 51.11 40.9225 52.4531 39.2656 52.4531H21.2656C19.6088 52.4531 18.2656 51.11 18.2656 49.4531ZM21.2656 58.4531C19.6088 58.4531 18.2656 59.7963 18.2656 61.4531C18.2656 63.11 19.6088 64.4531 21.2656 64.4531H39.2656C40.9225 64.4531 42.2656 63.11 42.2656 61.4531C42.2656 59.7963 40.9225 58.4531 39.2656 58.4531H21.2656Z" fill="#3AB44A"/>
</svg>
