<svg width="15" height="21" viewBox="0 0 15 21" fill="none" xmlns="http://www.w3.org/2000/svg">
<path fill-rule="evenodd" clip-rule="evenodd" d="M2.51328 0.84082C1.1878 0.84082 0.113281 1.91534 0.113281 3.24082V17.6408C0.113281 18.9663 1.1878 20.0408 2.51328 20.0408H12.1133C13.4388 20.0408 14.5133 18.9663 14.5133 17.6408V7.33788C14.5133 6.70136 14.2604 6.09091 13.8103 5.64082L9.71328 1.54376C9.26319 1.09368 8.65275 0.84082 8.01623 0.84082H2.51328ZM3.71328 10.4408C3.05054 10.4408 2.51328 10.9781 2.51328 11.6408C2.51328 12.3036 3.05054 12.8408 3.71328 12.8408H10.9133C11.576 12.8408 12.1133 12.3036 12.1133 11.6408C12.1133 10.9781 11.576 10.4408 10.9133 10.4408H3.71328Z" fill="#F9FAFB"/>
</svg>
