<svg width="38" height="38" fill="none" xmlns="http://www.w3.org/2000/svg">
  <g filter="url(#a)">
    <rect x="3" y="1" width="32" height="32" rx="16" fill="#F1F7FF"/>
    <path fill-rule="evenodd" clip-rule="evenodd" d="M19 10.333h.022c3.124.013 5.657 2.562 5.644 5.682v.062c-.042 2.23-1.382 4.08-2.5 5.24-.317.33-.656.649-1.005.946a.498.498 0 0 1-.645-.756c.323-.275.637-.571.933-.88.994-1.03 2.186-2.661 2.222-4.568.01-2.62-2.077-4.722-4.653-4.732H19a4.674 4.674 0 0 0-4.672 4.647 6.08 6.08 0 0 0 1.24 3.483c.896 1.193 2.254 2.456 3.546 3.296a.496.496 0 0 1-.272.914.493.493 0 0 1-.271-.081c-1.383-.9-2.839-2.253-3.798-3.53a7.071 7.071 0 0 1-1.44-4.047c.012-3.152 2.552-5.676 5.667-5.676Zm-1.163 5.743a1.162 1.162 0 0 0 2.322 0c0-.64-.52-1.16-1.161-1.16a.497.497 0 1 1 0-.994c1.189 0 2.156.966 2.156 2.154a2.158 2.158 0 0 1-4.313 0 .497.497 0 0 1 .995 0Z" fill="#092593"/>
    <rect x="3.5" y="1.5" width="31" height="31" rx="15.5" stroke="#005BC2"/>
  </g>
  <defs>
    <filter id="a" x="0" y="0" width="38" height="38" filterUnits="userSpaceOnUse" color-interpolation-filters="sRGB">
      <feFlood flood-opacity="0" result="BackgroundImageFix"/>
      <feColorMatrix in="SourceAlpha" values="0 0 0 0 0 0 0 0 0 0 0 0 0 0 0 0 0 0 127 0" result="hardAlpha"/>
      <feMorphology radius="2" in="SourceAlpha" result="effect1_dropShadow_21123_78146"/>
      <feOffset dy="2"/>
      <feGaussianBlur stdDeviation="2.5"/>
      <feComposite in2="hardAlpha" operator="out"/>
      <feColorMatrix values="0 0 0 0 0.0313542 0 0 0 0 0.355288 0 0 0 0 0.5375 0 0 0 0.69 0"/>
      <feBlend in2="BackgroundImageFix" result="effect1_dropShadow_21123_78146"/>
      <feBlend in="SourceGraphic" in2="effect1_dropShadow_21123_78146" result="shape"/>
    </filter>
  </defs>
</svg>