<svg width="24" height="24" fill="none" xmlns="http://www.w3.org/2000/svg">
  <rect width="24" height="24" rx="12" fill="#fff" fill-opacity=".75"/>
  <path d="M9.5 12a2.5 2.5 0 1 1 5 0 2.5 2.5 0 0 1-5 0ZM8.15 12a3.851 3.851 0 1 0 7.702 0 3.851 3.851 0 0 0-7.702 0Zm6.955-4.004a.9.9 0 1 0 .9-.9.9.9 0 0 0-.9.9ZM8.97 18.105c-.731-.034-1.129-.155-1.393-.258-.35-.137-.6-.299-.862-.561a2.314 2.314 0 0 1-.561-.862c-.103-.264-.225-.662-.258-1.393-.037-.79-.044-1.028-.044-3.03 0-2.004.008-2.24.044-3.032.033-.731.156-1.128.258-1.393.136-.35.298-.6.56-.862.263-.263.512-.426.863-.561.264-.103.662-.225 1.393-.258.79-.037 1.028-.044 3.03-.044s2.24.008 3.03.044c.732.033 1.129.156 1.394.258.35.135.6.298.862.56.263.263.425.513.561.863.103.264.225.662.258 1.393.037.791.044 1.028.044 3.031s-.007 2.24-.044 3.031c-.033.731-.155 1.129-.258 1.393-.136.35-.298.6-.56.862a2.332 2.332 0 0 1-.863.56c-.264.104-.662.226-1.393.259-.79.036-1.028.043-3.031.043s-2.24-.007-3.03-.043Zm-.062-13.56c-.799.037-1.344.163-1.82.349a3.679 3.679 0 0 0-1.33.865 3.664 3.664 0 0 0-.864 1.328c-.186.477-.312 1.022-.349 1.82-.037.8-.045 1.056-.045 3.093s.008 2.292.045 3.092c.037.799.163 1.344.349 1.82.191.494.447.913.865 1.33.417.416.835.672 1.328.864.478.186 1.022.312 1.82.349.801.036 1.056.045 3.093.045s2.292-.009 3.092-.045c.799-.037 1.344-.163 1.82-.349a3.688 3.688 0 0 0 1.33-.865c.417-.417.672-.835.864-1.328.186-.477.313-1.023.349-1.82.036-.801.044-1.056.044-3.093s-.008-2.292-.044-3.092c-.037-.799-.163-1.344-.349-1.82a3.688 3.688 0 0 0-.865-1.33 3.67 3.67 0 0 0-1.328-.864c-.477-.186-1.023-.313-1.82-.349-.8-.036-1.056-.045-3.092-.045-2.037 0-2.293.008-3.093.045Z" fill="#111827"/>
</svg>