<svg width="56" height="56" viewBox="0 0 56 56" fill="none" xmlns="http://www.w3.org/2000/svg">
<rect x="0.5" y="0.5" width="55" height="55" rx="27.5" fill="white"/>
<path d="M33.6569 32.6569C32.7202 33.5935 30.7616 35.5521 29.4138 36.8999C28.6327 37.681 27.3677 37.6814 26.5866 36.9003C25.2623 35.576 23.3416 33.6553 22.3431 32.6569C19.219 29.5327 19.219 24.4673 22.3431 21.3431C25.4673 18.219 30.5327 18.219 33.6569 21.3431C36.7811 24.4673 36.7811 29.5327 33.6569 32.6569Z" stroke="#3AB44A" stroke-width="1.66667" stroke-linecap="round" stroke-linejoin="round"/>
<path d="M31 27C31 28.6569 29.6569 30 28 30C26.3431 30 25 28.6569 25 27C25 25.3431 26.3431 24 28 24C29.6569 24 31 25.3431 31 27Z" stroke="#3AB44A" stroke-width="1.66667" stroke-linecap="round" stroke-linejoin="round"/>
<rect x="0.5" y="0.5" width="55" height="55" rx="27.5" stroke="#E5E7EB"/>
</svg>
