<svg width="56" height="56" viewBox="0 0 56 56" fill="none" xmlns="http://www.w3.org/2000/svg">
<rect width="56" height="56" rx="28" fill="#3AB44A"/>
<path d="M24.3984 19.5996C23.7357 19.5996 23.1984 20.1369 23.1984 20.7996C23.1984 21.4624 23.7357 21.9996 24.3984 21.9996H31.5984C32.2612 21.9996 32.7984 21.4624 32.7984 20.7996C32.7984 20.1369 32.2612 19.5996 31.5984 19.5996H24.3984Z" fill="#F9FAFB"/>
<path d="M20.7984 24.3996C20.7984 23.7369 21.3357 23.1996 21.9984 23.1996H33.9984C34.6612 23.1996 35.1984 23.7369 35.1984 24.3996C35.1984 25.0624 34.6612 25.5996 33.9984 25.5996H21.9984C21.3357 25.5996 20.7984 25.0624 20.7984 24.3996Z" fill="#F9FAFB"/>
<path d="M18.3984 29.1996C18.3984 27.8741 19.473 26.7996 20.7984 26.7996H35.1984C36.5239 26.7996 37.5984 27.8741 37.5984 29.1996V33.9996C37.5984 35.3251 36.5239 36.3996 35.1984 36.3996H20.7984C19.473 36.3996 18.3984 35.3251 18.3984 33.9996V29.1996Z" fill="#F9FAFB"/>
<rect width="56" height="56" rx="28" stroke="white"/>
</svg>
