<svg width="18" height="20" viewBox="0 0 18 20" fill="none" xmlns="http://www.w3.org/2000/svg">
<path d="M7.79961 0.400391C6.47413 0.400391 5.39961 1.47491 5.39961 2.80039V12.4004C5.39961 13.7259 6.47412 14.8004 7.79961 14.8004H14.9996C16.3251 14.8004 17.3996 13.7259 17.3996 12.4004V5.69745C17.3996 5.06093 17.1468 4.45048 16.6967 4.00039L13.7996 1.10333C13.3495 0.653247 12.7391 0.400391 12.1026 0.400391H7.79961Z" fill="#6B7280"/>
<path d="M0.599609 7.60039C0.599609 6.27491 1.67413 5.20039 2.99961 5.20039V17.2004H12.5996C12.5996 18.5259 11.5251 19.6004 10.1996 19.6004H2.99961C1.67413 19.6004 0.599609 18.5259 0.599609 17.2004V7.60039Z" fill="#6B7280"/>
</svg>
