<svg width="56" height="56" viewBox="0 0 56 56" fill="none" xmlns="http://www.w3.org/2000/svg">
<rect width="56" height="56" rx="28" fill="#3AB44A"/>
<path fill-rule="evenodd" clip-rule="evenodd" d="M25.5991 20.799C22.9481 20.799 20.7991 22.9481 20.7991 25.599C20.7991 28.25 22.9481 30.399 25.5991 30.399C28.2501 30.399 30.3991 28.25 30.3991 25.599C30.3991 22.9481 28.2501 20.799 25.5991 20.799ZM18.3991 25.599C18.3991 21.6226 21.6227 18.399 25.5991 18.399C29.5756 18.399 32.7991 21.6226 32.7991 25.599C32.7991 27.154 32.3062 28.5939 31.468 29.7709L37.2476 35.5505C37.7163 36.0191 37.7163 36.7789 37.2476 37.2476C36.779 37.7162 36.0192 37.7162 35.5506 37.2476L29.771 31.4679C28.594 32.3061 27.1541 32.799 25.5991 32.799C21.6227 32.799 18.3991 29.5755 18.3991 25.599Z" fill="#F9FAFB"/>
<rect width="56" height="56" rx="28" stroke="white"/>
</svg>
