<svg width="70" height="70" viewBox="0 0 70 70" fill="none" xmlns="http://www.w3.org/2000/svg">
<circle cx="35" cy="35" r="35" fill="#F0FDF4"/>
<path d="M46.445 22.475C46.2707 22.334 46.0671 22.2339 45.849 22.182C45.631 22.1301 45.4041 22.1277 45.185 22.175C43.5821 22.5109 41.9275 22.5152 40.3229 22.1875C38.7184 21.8599 37.1979 21.2073 35.855 20.27C35.6039 20.0958 35.3056 20.0024 35 20.0024C34.6944 20.0024 34.3961 20.0958 34.145 20.27C32.8021 21.2073 31.2816 21.8599 29.677 22.1875C28.0725 22.5152 26.4178 22.5109 24.815 22.175C24.5959 22.1277 24.369 22.1301 24.1509 22.182C23.9329 22.2339 23.7293 22.334 23.555 22.475C23.381 22.6162 23.2408 22.7945 23.1447 22.997C23.0487 23.1995 22.9992 23.4209 23 23.645V34.82C22.9987 36.9706 23.5112 39.0904 24.4948 41.0029C25.4784 42.9154 26.9048 44.5652 28.655 45.815L34.13 49.715C34.384 49.8959 34.6881 49.9931 35 49.9931C35.3118 49.9931 35.6159 49.8959 35.87 49.715L41.345 45.815C43.0952 44.5652 44.5215 42.9154 45.5052 41.0029C46.4888 39.0904 47.0013 36.9706 47 34.82V23.645C47.0008 23.4209 46.9513 23.1995 46.8553 22.997C46.7592 22.7945 46.619 22.6162 46.445 22.475ZM44 34.82C44.0011 36.4921 43.6029 38.1403 42.8385 39.6275C42.074 41.1147 40.9654 42.3977 39.605 43.37L35 46.655L30.395 43.37C29.0345 42.3977 27.926 41.1147 27.1615 39.6275C26.3971 38.1403 25.9988 36.4921 26 34.82V25.37C29.1446 25.6391 32.2941 24.9095 35 23.285C37.7059 24.9095 40.8553 25.6391 44 25.37V34.82ZM37.31 31.385L33.275 35.435L31.94 34.085C31.6575 33.8025 31.2744 33.6438 30.875 33.6438C30.4755 33.6438 30.0924 33.8025 29.81 34.085C29.5275 34.3674 29.3689 34.7505 29.3689 35.15C29.3689 35.5494 29.5275 35.9325 29.81 36.215L32.21 38.615C32.3494 38.7556 32.5153 38.8672 32.6981 38.9433C32.8809 39.0195 33.077 39.0587 33.275 39.0587C33.473 39.0587 33.6691 39.0195 33.8519 38.9433C34.0346 38.8672 34.2005 38.7556 34.34 38.615L39.5 33.5C39.7824 33.2175 39.9411 32.8344 39.9411 32.435C39.9411 32.0355 39.7824 31.6524 39.5 31.37C39.2175 31.0875 38.8344 30.9288 38.435 30.9288C38.0355 30.9288 37.6524 31.0875 37.37 31.37L37.31 31.385Z" fill="#3AB44A"/>
</svg>
