<svg width="32" height="32" fill="none" xmlns="http://www.w3.org/2000/svg">
  <rect width="32" height="32" rx="10" fill="#3AB44A"/>
  <path fill-rule="evenodd" clip-rule="evenodd" d="M17.243 10.3c-.316-1.304-2.17-1.304-2.486 0a1.28 1.28 0 0 1-1.909.79c-1.145-.697-2.456.613-1.758 1.758a1.28 1.28 0 0 1-.79 1.91c-1.304.316-1.304 2.17 0 2.486a1.28 1.28 0 0 1 .79 1.909c-.698 1.145.613 2.456 1.758 1.758a1.28 1.28 0 0 1 1.909.79c.316 1.304 2.17 1.304 2.486 0a1.28 1.28 0 0 1 1.909-.79c1.145.697 2.456-.613 1.758-1.759a1.28 1.28 0 0 1 .79-1.908c1.304-.317 1.304-2.17 0-2.487a1.28 1.28 0 0 1-.79-1.909c.698-1.145-.613-2.455-1.758-1.758a1.28 1.28 0 0 1-1.909-.79ZM16 18.505a2.504 2.504 0 1 0 0-5.009 2.504 2.504 0 0 0 0 5.009Z" fill="#fff"/>
</svg>