<svg width="20" height="20" fill="none" xmlns="http://www.w3.org/2000/svg">
  <path d="M14.166 16.665h4.167V15a2.5 2.5 0 0 0-4.464-1.548m.297 3.214H5.833m8.333 0V15c0-.547-.105-1.07-.297-1.548m0 0a4.167 4.167 0 0 0-7.74 0m-.296 3.214H1.666V15a2.5 2.5 0 0 1 4.463-1.548m-.296 3.214V15c0-.547.105-1.07.296-1.548m6.37-7.619a2.5 2.5 0 1 1-5 0 2.5 2.5 0 0 1 5 0Zm5 2.5a1.666 1.666 0 1 1-3.333 0 1.666 1.666 0 0 1 3.333 0Zm-11.666 0a1.667 1.667 0 1 1-3.334 0 1.667 1.667 0 0 1 3.334 0Z" stroke="#374151" stroke-width="1.43" stroke-linecap="round" stroke-linejoin="round"/>
</svg>