<svg width="24" height="24" fill="none" xmlns="http://www.w3.org/2000/svg">
  <rect width="24" height="24" rx="12" fill="#fff" fill-opacity=".75"/>
  <path d="M17.881 9.406v.375c0 3.881-2.962 8.363-8.362 8.363A8.442 8.442 0 0 1 5 16.83c.225.019.469.038.694.038a5.95 5.95 0 0 0 3.656-1.256 2.91 2.91 0 0 1-2.737-2.044 2.725 2.725 0 0 0 1.33-.057 2.919 2.919 0 0 1-2.362-2.868v-.038c.394.225.844.357 1.331.375A2.944 2.944 0 0 1 5.6 8.525c0-.544.15-1.05.394-1.481a8.363 8.363 0 0 0 6.056 3.075 2.66 2.66 0 0 1-.075-.675A2.937 2.937 0 0 1 14.919 6.5c.843 0 1.612.356 2.137.919a5.973 5.973 0 0 0 1.875-.713 3.03 3.03 0 0 1-1.294 1.631 5.63 5.63 0 0 0 1.688-.468 5.372 5.372 0 0 1-1.444 1.537Z" fill="#111827"/>
</svg>