<svg width="42" height="42" fill="none" xmlns="http://www.w3.org/2000/svg">
  <g filter="url(#a)">
    <rect x="5" y="5" width="32" height="32" rx="16" fill="#EAFFEB"/>
    <path fill-rule="evenodd" clip-rule="evenodd" d="M26.435 18.06c.475.383.753.957.76 1.566l-.006 5.316a2.614 2.614 0 0 1-2.615 2.614h-1.16a1.27 1.27 0 0 1-1.269-1.263v-2.4a.336.336 0 0 0-.336-.337h-1.74a.336.336 0 0 0-.335.342v.916a.522.522 0 1 1-1.044 0v-.916a1.386 1.386 0 0 1 1.386-1.385h1.739c.763.003 1.38.623 1.38 1.385v2.395c0 .121.098.22.22.22h1.188c.865 0 1.565-.7 1.565-1.565v-5.31a.98.98 0 0 0-.37-.754l-4.006-3.194a1.368 1.368 0 0 0-1.74 0l-1.287.962a.532.532 0 1 1-.62-.864l1.27-.921a2.406 2.406 0 0 1 3.014 0l4.006 3.194Zm-9.153 8.447h2.666v.012a.522.522 0 0 1 0 1.043h-2.666a2.62 2.62 0 0 1-2.615-2.614v-5.31c.01-.614.297-1.19.783-1.566l.48-.359a.522.522 0 0 1 .604.829l-.47.348a.98.98 0 0 0-.354.748v5.304a1.577 1.577 0 0 0 1.572 1.565Z" fill="#007003"/>
    <rect x="5.5" y="5.5" width="31" height="31" rx="15.5" stroke="#007003"/>
  </g>
  <defs>
    <filter id="a" x="0" y="0" width="42" height="42" filterUnits="userSpaceOnUse" color-interpolation-filters="sRGB">
      <feFlood flood-opacity="0" result="BackgroundImageFix"/>
      <feColorMatrix in="SourceAlpha" values="0 0 0 0 0 0 0 0 0 0 0 0 0 0 0 0 0 0 127 0" result="hardAlpha"/>
      <feMorphology radius="2" in="SourceAlpha" result="effect1_dropShadow_21123_78144"/>
      <feOffset/>
      <feGaussianBlur stdDeviation="3.5"/>
      <feComposite in2="hardAlpha" operator="out"/>
      <feColorMatrix values="0 0 0 0 0.00625019 0 0 0 0 0.3125 0 0 0 0 0 0 0 0 0.74 0"/>
      <feBlend in2="BackgroundImageFix" result="effect1_dropShadow_21123_78144"/>
      <feBlend in="SourceGraphic" in2="effect1_dropShadow_21123_78144" result="shape"/>
    </filter>
  </defs>
</svg>