<svg width="38" height="38" fill="none" xmlns="http://www.w3.org/2000/svg">
  <g filter="url(#a)">
    <rect x="3" y="1" width="32" height="32" rx="16" fill="#FB3947"/>
    <mask id="b" maskUnits="userSpaceOnUse" x="8" y="10" width="22" height="14" fill="#000">
      <path fill="#fff" d="M8 10h22v14H8z"/>
      <path fill-rule="evenodd" clip-rule="evenodd" d="M10.734 11.053a.745.745 0 0 0-.372.416c-.058.203-.051 5.877.007 5.987.109.203.328.243.484.087l.096-.096v-5.824H23.02v2.873c0 2.11.012 2.897.045 2.96.109.203.328.243.484.087.08-.081.096-.134.096-.332v-.236h1.924c1.168 0 1.98.015 2.065.04.198.054.38.186.53.383.21.275.203.28-.4.28-.51 0-.532.003-.625.095-.091.092-.096.12-.096.572 0 .602.042.744.292.994.227.228.398.292.777.292h.26v1.406h-.804l-.121-.244c-.722-1.457-2.82-1.457-3.542.001-.08.161-.142.241-.181.234-.052-.01-.062-.185-.08-1.27-.02-1.38-.015-1.351-.262-1.4-.105-.021-.144-.006-.244.093l-.118.12v2.466h-6.481l-.082-.184c-.346-.782-1.22-1.264-2.077-1.144-.618.087-1.24.537-1.499 1.084l-.116.244-.898-.01-.899-.01v-.703l.75-.01.75-.01.08-.103c.106-.134.102-.258-.014-.392l-.094-.11H9.184l-.094.11c-.116.134-.12.258-.013.393l.08.103H10.325v.4c.002.305.019.438.074.557.167.366.306.406 1.392.408l.86.002.048.3c.262 1.648 2.306 2.26 3.424 1.025.223-.246.444-.695.475-.962.012-.103.03-.227.04-.275l.017-.088h7.014l.06.322c.08.42.226.722.488 1.005.427.461.832.638 1.46.638s1.033-.177 1.46-.638c.268-.29.406-.57.485-.99l.063-.331.562-.013.562-.012.096-.112.096-.112-.012-1.9c-.01-1.849-.013-1.906-.096-2.108-.193-.47-.634-.876-1.073-.989-.132-.033-.21-.078-.233-.13-.018-.044-.14-.506-.27-1.029l-.235-.949.122-.102.122-.103-.016-.413c-.014-.355-.03-.442-.123-.62-.126-.243-.354-.483-.561-.587-.276-.14-.525-.163-1.768-.163h-1.206l-.013-.46c-.011-.41-.023-.472-.107-.59a.746.746 0 0 0-.253-.204c-.154-.07-.395-.073-6.294-.072-5.038 0-6.154.01-6.25.053Zm15.594 1.986a.756.756 0 0 1 .351.475l.023.14h-3.057v-.707l1.28.012c1.13.01 1.293.02 1.403.08ZM18.09 15.44l-1.439 1.435-.751-.749c-.479-.477-.79-.758-.86-.775-.22-.053-.428.201-.34.414.024.058.444.503.933.99.81.804.902.884 1.022.884.123 0 .253-.12 1.725-1.593 1.45-1.45 1.593-1.604 1.593-1.72a.326.326 0 0 0-.319-.32c-.114 0-.266.139-1.564 1.434Zm8.594-.135c.134.542.244 1 .243 1.015 0 .016-.74.03-1.642.03h-1.64v-2.032h2.794l.245.987Zm1.688 3.35v.35h-.25c-.216 0-.261-.012-.35-.102-.09-.09-.104-.135-.104-.352v-.248h.704v.351Zm-18.598-.2c-.14.142-.147.287-.018.416l.096.096h2.108c1.16 0 2.136-.011 2.171-.024.071-.028.178-.213.178-.31 0-.034-.052-.114-.115-.177l-.114-.114H9.888l-.114.114Zm7.437 1.254a.32.32 0 0 0-.188.35c.054.245-.05.236 2.663.236h2.469l.08-.103c.107-.135.103-.259-.013-.393l-.094-.11-2.416-.007c-1.35-.005-2.453.007-2.5.027Zm-2.258.645c.339.055.736.366.914.714.174.342.175.844.002 1.185-.517 1.018-1.928 1.02-2.428.004-.116-.235-.129-.295-.127-.594.001-.281.018-.367.109-.554.191-.397.59-.705 1-.775.178-.03.232-.028.53.02Zm10.939-.017c.6.111 1.06.593 1.134 1.19.05.404-.17.935-.491 1.19a1.353 1.353 0 0 1-2.17-.738c-.188-.74.324-1.514 1.086-1.64.113-.02.207-.037.208-.04.002-.002.106.015.233.038Zm-11.574.776c-.48.3-.371 1.012.18 1.177.312.094.712-.143.77-.456.085-.448-.15-.763-.588-.788-.185-.01-.262.004-.362.067Zm11.051-.01c-.387.191-.443.792-.099 1.063a.63.63 0 0 0 .86-.051.641.641 0 0 0 .06-.836c-.164-.229-.546-.31-.82-.176Z"/>
    </mask>
    <path fill-rule="evenodd" clip-rule="evenodd" d="M10.734 11.053a.745.745 0 0 0-.372.416c-.058.203-.051 5.877.007 5.987.109.203.328.243.484.087l.096-.096v-5.824H23.02v2.873c0 2.11.012 2.897.045 2.96.109.203.328.243.484.087.08-.081.096-.134.096-.332v-.236h1.924c1.168 0 1.98.015 2.065.04.198.054.38.186.53.383.21.275.203.28-.4.28-.51 0-.532.003-.625.095-.091.092-.096.12-.096.572 0 .602.042.744.292.994.227.228.398.292.777.292h.26v1.406h-.804l-.121-.244c-.722-1.457-2.82-1.457-3.542.001-.08.161-.142.241-.181.234-.052-.01-.062-.185-.08-1.27-.02-1.38-.015-1.351-.262-1.4-.105-.021-.144-.006-.244.093l-.118.12v2.466h-6.481l-.082-.184c-.346-.782-1.22-1.264-2.077-1.144-.618.087-1.24.537-1.499 1.084l-.116.244-.898-.01-.899-.01v-.703l.75-.01.75-.01.08-.103c.106-.134.102-.258-.014-.392l-.094-.11H9.184l-.094.11c-.116.134-.12.258-.013.393l.08.103H10.325v.4c.002.305.019.438.074.557.167.366.306.406 1.392.408l.86.002.048.3c.262 1.648 2.306 2.26 3.424 1.025.223-.246.444-.695.475-.962.012-.103.03-.227.04-.275l.017-.088h7.014l.06.322c.08.42.226.722.488 1.005.427.461.832.638 1.46.638s1.033-.177 1.46-.638c.268-.29.406-.57.485-.99l.063-.331.562-.013.562-.012.096-.112.096-.112-.012-1.9c-.01-1.849-.013-1.906-.096-2.108-.193-.47-.634-.876-1.073-.989-.132-.033-.21-.078-.233-.13-.018-.044-.14-.506-.27-1.029l-.235-.949.122-.102.122-.103-.016-.413c-.014-.355-.03-.442-.123-.62-.126-.243-.354-.483-.561-.587-.276-.14-.525-.163-1.768-.163h-1.206l-.013-.46c-.011-.41-.023-.472-.107-.59a.746.746 0 0 0-.253-.204c-.154-.07-.395-.073-6.294-.072-5.038 0-6.154.01-6.25.053Zm15.594 1.986a.756.756 0 0 1 .351.475l.023.14h-3.057v-.707l1.28.012c1.13.01 1.293.02 1.403.08ZM18.09 15.44l-1.439 1.435-.751-.749c-.479-.477-.79-.758-.86-.775-.22-.053-.428.201-.34.414.024.058.444.503.933.99.81.804.902.884 1.022.884.123 0 .253-.12 1.725-1.593 1.45-1.45 1.593-1.604 1.593-1.72a.326.326 0 0 0-.319-.32c-.114 0-.266.139-1.564 1.434Zm8.594-.135c.134.542.244 1 .243 1.015 0 .016-.74.03-1.642.03h-1.64v-2.032h2.794l.245.987Zm1.688 3.35v.35h-.25c-.216 0-.261-.012-.35-.102-.09-.09-.104-.135-.104-.352v-.248h.704v.351Zm-18.598-.2c-.14.142-.147.287-.018.416l.096.096h2.108c1.16 0 2.136-.011 2.171-.024.071-.028.178-.213.178-.31 0-.034-.052-.114-.115-.177l-.114-.114H9.888l-.114.114Zm7.437 1.254a.32.32 0 0 0-.188.35c.054.245-.05.236 2.663.236h2.469l.08-.103c.107-.135.103-.259-.013-.393l-.094-.11-2.416-.007c-1.35-.005-2.453.007-2.5.027Zm-2.258.645c.339.055.736.366.914.714.174.342.175.844.002 1.185-.517 1.018-1.928 1.02-2.428.004-.116-.235-.129-.295-.127-.594.001-.281.018-.367.109-.554.191-.397.59-.705 1-.775.178-.03.232-.028.53.02Zm10.939-.017c.6.111 1.06.593 1.134 1.19.05.404-.17.935-.491 1.19a1.353 1.353 0 0 1-2.17-.738c-.188-.74.324-1.514 1.086-1.64.113-.02.207-.037.208-.04.002-.002.106.015.233.038Zm-11.574.776c-.48.3-.371 1.012.18 1.177.312.094.712-.143.77-.456.085-.448-.15-.763-.588-.788-.185-.01-.262.004-.362.067Zm11.051-.01c-.387.191-.443.792-.099 1.063a.63.63 0 0 0 .86-.051.641.641 0 0 0 .06-.836c-.164-.229-.546-.31-.82-.176Z" fill="#fff"/>
    <path clip-rule="evenodd" d="M10.734 11.053a.745.745 0 0 0-.372.416c-.058.203-.051 5.877.007 5.987.109.203.328.243.484.087l.096-.096v-5.824H23.02v2.873c0 2.11.012 2.897.045 2.96.109.203.328.243.484.087.08-.081.096-.134.096-.332v-.236h1.924c1.168 0 1.98.015 2.065.04.198.054.38.186.53.383.21.275.203.28-.4.28-.51 0-.532.003-.625.095-.091.092-.096.12-.096.572 0 .602.042.744.292.994.227.228.398.292.777.292h.26v1.406h-.804l-.121-.244c-.722-1.457-2.82-1.457-3.542.001-.08.161-.142.241-.181.234-.052-.01-.062-.185-.08-1.27-.02-1.38-.015-1.351-.262-1.4-.105-.021-.144-.006-.244.093l-.118.12v2.466h-6.481l-.082-.184c-.346-.782-1.22-1.264-2.077-1.144-.618.087-1.24.537-1.499 1.084l-.116.244-.898-.01-.899-.01v-.703l.75-.01.75-.01.08-.103c.106-.134.102-.258-.014-.392l-.094-.11H9.184l-.094.11c-.116.134-.12.258-.013.393l.08.103H10.325v.4c.002.305.019.438.074.557.167.366.306.406 1.392.408l.86.002.048.3c.262 1.648 2.306 2.26 3.424 1.025.223-.246.444-.695.475-.962.012-.103.03-.227.04-.275l.017-.088h7.014l.06.322c.08.42.226.722.488 1.005.427.461.832.638 1.46.638s1.033-.177 1.46-.638c.268-.29.406-.57.485-.99l.063-.331.562-.013.562-.012.096-.112.096-.112-.012-1.9c-.01-1.849-.013-1.906-.096-2.108-.193-.47-.634-.876-1.073-.989-.132-.033-.21-.078-.233-.13-.018-.044-.14-.506-.27-1.029l-.235-.949.122-.102.122-.103-.016-.413c-.014-.355-.03-.442-.123-.62-.126-.243-.354-.483-.561-.587-.276-.14-.525-.163-1.768-.163h-1.206l-.013-.46c-.011-.41-.023-.472-.107-.59a.746.746 0 0 0-.253-.204c-.154-.07-.395-.073-6.294-.072-5.038 0-6.154.01-6.25.053Zm15.594 1.986a.756.756 0 0 1 .351.475l.023.14h-3.057v-.707l1.28.012c1.13.01 1.293.02 1.403.08ZM18.09 15.44l-1.439 1.435-.751-.749c-.479-.477-.79-.758-.86-.775-.22-.053-.428.201-.34.414.024.058.444.503.933.99.81.804.902.884 1.022.884.123 0 .253-.12 1.725-1.593 1.45-1.45 1.593-1.604 1.593-1.72a.326.326 0 0 0-.319-.32c-.114 0-.266.139-1.564 1.434Zm8.594-.135c.134.542.244 1 .243 1.015 0 .016-.74.03-1.642.03h-1.64v-2.032h2.794l.245.987Zm1.688 3.35v.35h-.25c-.216 0-.261-.012-.35-.102-.09-.09-.104-.135-.104-.352v-.248h.704v.351Zm-18.598-.2c-.14.142-.147.287-.018.416l.096.096h2.108c1.16 0 2.136-.011 2.171-.024.071-.028.178-.213.178-.31 0-.034-.052-.114-.115-.177l-.114-.114H9.888l-.114.114Zm7.437 1.254a.32.32 0 0 0-.188.35c.054.245-.05.236 2.663.236h2.469l.08-.103c.107-.135.103-.259-.013-.393l-.094-.11-2.416-.007c-1.35-.005-2.453.007-2.5.027Zm-2.258.645c.339.055.736.366.914.714.174.342.175.844.002 1.185-.517 1.018-1.928 1.02-2.428.004-.116-.235-.129-.295-.127-.594.001-.281.018-.367.109-.554.191-.397.59-.705 1-.775.178-.03.232-.028.53.02Zm10.939-.017c.6.111 1.06.593 1.134 1.19.05.404-.17.935-.491 1.19a1.353 1.353 0 0 1-2.17-.738c-.188-.74.324-1.514 1.086-1.64.113-.02.207-.037.208-.04.002-.002.106.015.233.038Zm-11.574.776c-.48.3-.371 1.012.18 1.177.312.094.712-.143.77-.456.085-.448-.15-.763-.588-.788-.185-.01-.262.004-.362.067Zm11.051-.01c-.387.191-.443.792-.099 1.063a.63.63 0 0 0 .86-.051.641.641 0 0 0 .06-.836c-.164-.229-.546-.31-.82-.176Z" stroke="#286A3A" stroke-width=".1" mask="url(#b)"/>
    <rect x="3.5" y="1.5" width="31" height="31" rx="15.5" stroke="#FB3947"/>
  </g>
  <defs>
    <filter id="a" x="0" y="0" width="38" height="38" filterUnits="userSpaceOnUse" color-interpolation-filters="sRGB">
      <feFlood flood-opacity="0" result="BackgroundImageFix"/>
      <feColorMatrix in="SourceAlpha" values="0 0 0 0 0 0 0 0 0 0 0 0 0 0 0 0 0 0 127 0" result="hardAlpha"/>
      <feMorphology radius="2" in="SourceAlpha" result="effect1_dropShadow_20162_212873"/>
      <feOffset dy="2"/>
      <feGaussianBlur stdDeviation="2.5"/>
      <feComposite in2="hardAlpha" operator="out"/>
      <feColorMatrix values="0 0 0 0 0.0313542 0 0 0 0 0.355288 0 0 0 0 0.5375 0 0 0 0.69 0"/>
      <feBlend in2="BackgroundImageFix" result="effect1_dropShadow_20162_212873"/>
      <feBlend in="SourceGraphic" in2="effect1_dropShadow_20162_212873" result="shape"/>
    </filter>
  </defs>
</svg>