<svg width="96" height="96" fill="none" xmlns="http://www.w3.org/2000/svg">
  <rect width="96" height="96" rx="7.5" fill="url(#a)"/>
  <g clip-path="url(#b)">
    <path d="M28.897 32.43a.167.167 0 0 0 .026.034l.033.032c.025.023.059.052.101.087.084.068.204.16.353.273.3.225.723.534 1.239.903 1.033.74 2.438 1.724 3.966 2.774a295.695 295.695 0 0 1 3.898 2.721 67.6 67.6 0 0 1 1.166.845 9.88 9.88 0 0 1 .332.259 4.647 4.647 0 0 1-.224.117c-.177.09-.42.21-.71.348-.577.278-1.333.633-2.09.983-.757.35-1.514.696-2.093.953-.289.129-.534.235-.711.31a6.86 6.86 0 0 1-.286.11.263.263 0 0 0-11.012-2.606 1.268 1.268 0 0 0-.522.33c-.046.051-.126.17-.227.333-.102.166-.23.382-.375.631-.29.5-.645 1.134-.99 1.764-.344.63-.679 1.257-.927 1.741-.125.242-.228.45-.3.604a3.851 3.851 0 0 0-.108.258.205.205 0 0 0-.011.057c0 .068.021.164.051.26.03.097.073.203.12.294.047.09.089.166.213.26.118.089.311.194.657.352.693.319 2.023.864 4.654 1.944.742.304 1.416.588 1.905.801a23.582 23.582 0 0 1 .694.315c-.039.023-.09.052-.152.084-.15.08-.36.18-.593.282l.03.068-.03-.069c-.458.202-.784.39-.997.592-.216.204-.316.423-.316.677 0 .035.012.085.028.14.017.057.042.13.074.214.062.168.152.39.26.644.216.51.508 1.16.81 1.808.301.649.613 1.297.871 1.806.13.255.245.475.339.643.047.084.089.155.125.212a.91.91 0 0 0 .092.128.898.898 0 0 0 .635.283.215.215 0 0 0 .046-.006 2.791 2.791 0 0 0 .204-.068c.122-.047.292-.115.504-.205a90.41 90.41 0 0 0 1.79-.787 505.241 505.241 0 0 0 6.322-2.912 1147.28 1147.28 0 0 1 6.011-2.791 264.86 264.86 0 0 1 1.837-.838 40.511 40.511 0 0 1 .575-.255l-.004.06-.038.482c-.036.417-.089 1.017-.156 1.756-.134 1.477-.325 3.51-.538 5.739l-.779 8.107-.003.029.017.023.221.3.06-.045-.06.045c.18.245.517.498.901.706.386.21.83.38 1.232.456.888.168 1.712.016 2.435-.433.723-.45 1.34-1.192 1.821-2.203.047-.099.188-.477.398-1.068.212-.593.497-1.407.835-2.381.675-1.949 1.56-4.541 2.495-7.308a3312.25 3312.25 0 0 1 3.15-9.282 122.581 122.581 0 0 1 .268-.77l.002-.005.012-.006.106-.05.401-.189 1.461-.683c1.23-.575 2.92-1.363 4.776-2.226 3.708-1.726 7.07-3.327 7.467-3.557l-.038-.065.038.065c.4-.232 1.182-.874 1.74-1.427.828-.82 1.107-1.187 1.491-1.968l-.067-.033.067.033c.532-1.083.754-2.095.658-3.033-.096-.938-.509-1.796-1.234-2.572-1.285-1.373-3.257-1.96-5.552-1.665-.79.102-1.85.385-2.581.69-.43.179-4.107 1.886-8.167 3.791-2.03.954-3.894 1.82-5.26 2.448-.683.315-1.242.57-1.635.745a29.792 29.792 0 0 1-.585.254.886.886 0 0 1-.029.01c-.002 0-.004 0-.007-.002a150.456 150.456 0 0 0-16.785-6.421c-.518-.185-.865-.302-.982-.327-1.562-.33-3.074-.001-3.862.87-.423.47-.76 1.133-.945 1.764a3.708 3.708 0 0 0-.158.902c-.01.275.027.522.126.707ZM58.42 44.386ZM51.5 34.94c-.002 0-.001 0 0 0Zm7.916 6.603-.036.014c.011-.047.028-.108.05-.181.052-.175.131-.41.224-.664.223-.61.338-1.038.338-1.364a.958.958 0 0 0-.093-.431 1.033 1.033 0 0 0-.272-.331c-.333-.28-.687-.363-1.007-.24-.316.121-.578.435-.749.9l.07.026-.07-.026c-.119.324-2.005 5.915-4.19 12.424-1.094 3.255-2.11 6.268-2.869 8.501-.759 2.236-1.256 3.684-1.312 3.813a5.563 5.563 0 0 1-.55 1.006c-.194.276-.39.477-.569.586-.299.182-.7.233-1.016.179a.797.797 0 0 1-.366-.145c-.078-.065-.11-.14-.092-.226a6.22 6.22 0 0 0 .03-.266 789.677 789.677 0 0 0 .29-2.957c.186-1.924.436-4.546.704-7.401l.975-10.383.002-.029-.017-.023-.224-.3-.06.044.06-.044c-.502-.672-1.477-.612-1.792.141a1.661 1.661 0 0 0-.072.273c-.024.123-.05.277-.076.452-.051.35-.102.785-.14 1.22l-.135 1.534-8.457 3.941c-2.336 1.09-4.47 2.079-6.026 2.796a387.115 387.115 0 0 1-2.366 1.08 8.323 8.323 0 0 1-.139.06 7.409 7.409 0 0 1-.206-.37c-.131-.254-.3-.595-.464-.942a35.744 35.744 0 0 1-.45-.976 9.58 9.58 0 0 1-.145-.346 2.081 2.081 0 0 1-.044-.124 6.219 6.219 0 0 1 .398-.23c.273-.145.649-.331 1.063-.526l-.031-.067.031.068c.774-.363 1.242-.608 1.514-.841a.999.999 0 0 0 .286-.366c.056-.13.074-.269.074-.424a.583.583 0 0 0-.176-.427c-.13-.14-.349-.288-.7-.473-.702-.373-1.965-.911-4.21-1.839a268.454 268.454 0 0 1-3.124-1.313 61.808 61.808 0 0 1-.95-.415 9.3 9.3 0 0 1-.257-.119l-.03-.015a14.4 14.4 0 0 1 .214-.41 64.513 64.513 0 0 1 1.098-1.938 17.608 17.608 0 0 1 .268-.439.91.91 0 0 1 .016-.023 6.058 6.058 0 0 1 .376.06c.264.05.642.13 1.113.235.943.21 2.255.52 3.762.892l5.21 1.284.025.006.023-.01.736-.315c.407-.173 8.035-3.726 16.95-7.893 4.457-2.084 8.571-4 11.608-5.407 1.518-.703 2.768-1.28 3.656-1.687.444-.203.798-.364 1.05-.477.254-.115.4-.178.433-.19.555-.188 1.25-.301 1.935-.332.686-.03 1.356.022 1.861.162.294.082.638.258.947.474.31.217.58.469.73.697.452.682.453 1.59.072 2.513-.38.924-1.14 1.855-2.19 2.572a10.32 10.32 0 0 1-.737.399c-.393.201-.915.462-1.523.76a411.881 411.881 0 0 1-4.303 2.079c-1.535.731-3.05 1.444-4.189 1.968-.569.262-1.043.477-1.378.622-.167.073-.3.129-.39.164Zm-29.97 13.993ZM48.7 36.233l.045.02a39.223 39.223 0 0 1-.871.435 192.216 192.216 0 0 1-4.414 2.064c-.309.14-.57.255-.758.335a7.603 7.603 0 0 1-.29.117h-.003a3.295 3.295 0 0 1-.12-.071c-.089-.055-.216-.137-.377-.242-.321-.21-.773-.51-1.31-.872a647.354 647.354 0 0 1-3.92-2.657 656.123 656.123 0 0 1-3.913-2.688c-.536-.372-.984-.685-1.302-.911a23.44 23.44 0 0 1-.473-.346.715.715 0 0 1-.027-.023.114.114 0 0 1-.006-.05.44.44 0 0 1 .025-.115 1.44 1.44 0 0 1 .161-.315c.15-.228.357-.447.532-.537.434-.22.895-.236 1.758-.033.08.02.381.124.853.297.47.172 1.102.408 1.842.688 1.48.56 3.388 1.291 5.275 2.022 1.887.73 3.752 1.458 5.145 2.01.697.277 1.276.509 1.68.675.202.084.36.15.468.197Z" fill="#fff" stroke="#000" stroke-width=".15"/>
  </g>
  <defs>
    <linearGradient id="a" x1="48" y1="0" x2="48" y2="96" gradientUnits="userSpaceOnUse">
      <stop stop-color="#089208"/>
      <stop offset="1" stop-color="#004900"/>
    </linearGradient>
    <clipPath id="b">
      <rect x="12" y="12" width="72" height="72" rx="6" fill="#fff"/>
    </clipPath>
  </defs>
</svg>