<svg width="96" height="96" fill="none" xmlns="http://www.w3.org/2000/svg">
  <rect width="96" height="96" rx="7.5" fill="url(#a)"/>
  <path fill-rule="evenodd" clip-rule="evenodd" d="M49.797 31.853c-.38.12-.96.722-1.076 1.117a3.447 3.447 0 0 0-.096.797v.476l-2.91.023-2.91.023-.508.24a3.26 3.26 0 0 0-1.517 1.518l-.24.508-.024 3.22-.023 3.22-4.742.022-4.743.022-.352.184c-.479.25-.91.676-1.159 1.144l-.208.39v13.985l.208.39c.25.469.68.894 1.16 1.145l.35.184 4.748.022 4.747.022-.047.186c-.08.32.115 1.31.356 1.805a3.253 3.253 0 0 0 1.486 1.474l.508.24h21.64l.508-.24a3.28 3.28 0 0 0 1.515-1.517l.243-.508v-25.39l-.24-.508a3.26 3.26 0 0 0-1.518-1.517l-.508-.241-2.91-.023-2.91-.023v-.524c-.002-.907-.498-1.656-1.244-1.88-.406-.121-7.196-.11-7.584.014Zm.47 1.246c-.367.188-.396.357-.374 2.184.02 1.649.026 1.702.199 1.875l.178.178h6.71l.178-.178c.175-.175.178-.21.178-1.97 0-1.762-.003-1.796-.178-1.971l-.178-.178-3.26-.02c-2.516-.015-3.303.003-3.453.08Zm-7.133 2.512a1.847 1.847 0 0 0-1.15.95l-.195.38-.024 3.03L41.742 43H43.619l.023-2.754c.03-3.723-.197-3.447 2.854-3.48l2.129-.023V35.5l-2.559.005c-1.825.004-2.665.034-2.932.106Zm15.491.506v.626l2.129.023c2.384.026 2.37.023 2.71.62l.163.286-.02 11.668c-.02 11.417-.024 11.672-.173 11.867-.083.11-.242.269-.351.352-.195.148-.427.152-9.362.172-10.034.023-9.372.052-9.822-.431a1.143 1.143 0 0 1-.247-.507l-.047-.293h-1.878l.047.56c.085 1.01.618 1.679 1.478 1.857.29.06 3.454.08 10.61.065l10.197-.021.388-.2a1.89 1.89 0 0 0 .968-1.246c.12-.56.12-23.97 0-24.53a1.89 1.89 0 0 0-.968-1.246l-.388-.2-2.717-.024-2.717-.024v.626Zm-13.75 4.403v2.519l.348.143c.478.197.98.66 1.256 1.157l.232.419v13.984l-.18.336c-.279.524-.69.926-1.206 1.185l-.475.237h17.525V38h-2.1c-1.86 0-2.112.015-2.207.13-.059.07-.283.211-.498.311l-.39.182h-7.11l-.39-.182c-.215-.1-.44-.24-.498-.311-.095-.115-.346-.13-2.207-.13h-2.1v2.52Zm14.083 2.186-1.268 1.268-.492-.487c-.401-.398-.538-.487-.747-.487a.652.652 0 0 0-.639.64c0 .22.112.367.8 1.058 1.142 1.146.958 1.195 2.932-.78 1.414-1.417 1.581-1.61 1.581-1.84a.652.652 0 0 0-.641-.64c-.23 0-.4.141-1.526 1.268ZM48.475 43.83a.81.81 0 0 0-.163.419.81.81 0 0 0 .163.42l.161.205h5.603l.162-.206a.81.81 0 0 0 .161-.419.81.81 0 0 0-.161-.42l-.162-.205h-5.603l-.162.206Zm-17.07.5c-.32.096-.736.526-.827.853-.104.375-.105 12.761-.001 13.124.101.354.512.768.857.864.375.104 12.757.104 13.132 0 .345-.096.756-.51.857-.864.104-.363.103-12.75 0-13.124-.096-.345-.511-.756-.865-.857-.147-.042-.84-.077-1.538-.077h-1.27v1.152c-.002 1.047-.018 1.188-.186 1.543-.22.466-.435.678-.908.892-.328.149-.504.16-2.656.16-2.26.001-2.313-.002-2.7-.183-.455-.212-.832-.627-.96-1.058-.05-.164-.09-.794-.09-1.402V44.25l-1.309.007c-.72.003-1.41.037-1.535.074Zm4.108.972c.037 1.518-.157 1.408 2.487 1.408s2.45.11 2.486-1.408l.026-1.053h-5.024l.026 1.053Zm23.445 3.028-1.268 1.268-.492-.487c-.401-.398-.538-.487-.747-.487a.652.652 0 0 0-.639.64c0 .22.112.367.8 1.058 1.142 1.146.958 1.195 2.932-.78 1.414-1.417 1.581-1.61 1.581-1.84a.652.652 0 0 0-.641-.64c-.23 0-.4.141-1.526 1.268Zm-10.483 1.125a.81.81 0 0 0-.163.419.81.81 0 0 0 .163.42l.161.205h5.603l.162-.206a.81.81 0 0 0 .161-.419.81.81 0 0 0-.161-.42l-.162-.205h-5.603l-.162.206Zm10.483 4.5-1.268 1.268-.492-.487c-.401-.398-.538-.487-.747-.487a.652.652 0 0 0-.639.64c0 .22.112.367.8 1.058 1.142 1.146.958 1.195 2.932-.78 1.414-1.417 1.581-1.61 1.581-1.84a.652.652 0 0 0-.641-.64c-.23 0-.4.141-1.526 1.268Zm-27.046.5a.81.81 0 0 0-.162.419.81.81 0 0 0 .162.42l.162.205h4.352l.162-.206a.645.645 0 0 0 0-.838l-.162-.206h-4.352l-.162.206Zm16.563.625a.81.81 0 0 0-.163.419.81.81 0 0 0 .163.42l.161.205h5.603l.162-.206a.81.81 0 0 0 .161-.419.81.81 0 0 0-.161-.42l-.162-.205h-5.603l-.162.206Zm-16.563 1.875a.81.81 0 0 0-.162.419.81.81 0 0 0 .162.42l.162.205h3.102l.162-.206a.645.645 0 0 0 0-.838l-.162-.206h-3.102l-.162.206Z" fill="#fff"/>
  <defs>
    <linearGradient id="a" x1="48" y1="0" x2="48" y2="96" gradientUnits="userSpaceOnUse">
      <stop stop-color="#089208"/>
      <stop offset="1" stop-color="#004900"/>
    </linearGradient>
  </defs>
</svg>