<svg width="96" height="96" fill="none" xmlns="http://www.w3.org/2000/svg">
  <rect width="96" height="96" rx="7.5" fill="url(#a)"/>
  <mask id="b" maskUnits="userSpaceOnUse" x="18.5" y="30.5" width="57" height="32" fill="#000">
    <path fill="#fff" d="M18.5 30.5h57v32h-57z"/>
    <path fill-rule="evenodd" clip-rule="evenodd" d="M27.836 31.627c-.488.283-.461.542.384 3.776.444 1.7.78 3.133.746 3.187-.033.053-.291.132-.574.174-1.059.159-2.73.617-2.912.8-.17.168-.195.79-.247 5.865l-.057 5.677-.63.23c-2.468.896-4.782 1.842-4.903 2.002-.108.143-.143 1.118-.143 3.939v3.748l.307.242c.302.236.387.24 4.31.208 3.809-.03 4.01-.043 4.165-.255.253-.346.206-.936-.093-1.145-.216-.152-.764-.178-3.67-.178h-3.414v-5.578l2.494-.926c15.259-5.665 31.838-9.995 47.625-12.439 1.045-.161 1.968-.294 2.052-.294.372 0-.19 3.57-.87 5.52-.865 2.481-1.63 3.613-4.287 6.332-2.845 2.913-4.376 4.886-5.219 6.727l-.301.658h-6.904c-7.66 0-7.415-.024-7.411.722.004.91-.257.88 7.887.88 7.057 0 7.223-.004 7.51-.23.161-.126.33-.397.374-.6.16-.744 1.09-2.35 2.103-3.635.831-1.054 1.943-2.282 3.63-4.007 2.405-2.46 3.294-3.845 4.181-6.513.693-2.085 1.031-4.068 1.031-6.051 0-.931-.03-1.092-.244-1.306-.216-.215-.327-.235-.946-.17-1.183.123-5.829.864-8.672 1.382l-2.694.492-4.038-2.333c-2.22-1.283-4.216-2.418-4.434-2.522-.37-.176-.575-.175-2.958.008-1.408.109-3.27.26-4.136.335l-1.577.138-.107-.346c-1.21-3.912-1.383-4.375-1.674-4.507-.2-.091-1.246-.134-3.276-.134h-2.98l-.282.281c-.155.155-.28.374-.278.487.002.113.304 1.262.672 2.553.452 1.59.626 2.37.54 2.42-.07.039-.462.105-.872.146l-.745.075-.835-2.78c-.59-1.965-.906-2.84-1.074-2.982-.214-.18-.547-.2-3.292-.197-1.92.003-3.132.049-3.262.124Zm6.19 3.764.695 2.288-.358.06c-.196.033-1.054.164-1.905.29-.852.128-1.611.254-1.689.281-.083.03-.185-.12-.252-.374-.062-.233-.369-1.416-.683-2.629l-.57-2.204h4.067l.695 2.288Zm9.114-.517c.3.942.533 1.724.52 1.738-.014.013-.915.12-2.004.238l-1.979.213-.22-.749c-.12-.412-.359-1.239-.53-1.837a39.43 39.43 0 0 0-.363-1.234c-.044-.115.37-.139 1.988-.114l2.043.031.545 1.714Zm10.943 2.99c.404.227.735.446.735.487 0 .042-1.329.3-2.953.575-9.88 1.668-18.696 3.629-24.482 5.445l-.544.171v-3.846l1.462-.304c5.12-1.064 11.114-1.802 22.79-2.807 2.095-.18 2.182-.173 2.992.28Zm4.487 2.591c1.138.654 1.391.843 1.221.912-.117.047-1.22.299-2.45.558-6.841 1.444-15.343 3.698-22.828 6.052-2.501.787-6.837 2.223-7.473 2.476-.187.074-.201-.07-.201-2.09v-2.17l1.92-.588c5.83-1.783 13.698-3.475 25.371-5.456a520.97 520.97 0 0 0 2.965-.508c.022-.006.686.36 1.475.814Zm-.046 7.083c-.509.192-.648.87-.259 1.259.533.532 1.526-.054 1.289-.763-.127-.381-.658-.637-1.03-.496Zm-4.965 1.333c-.255.323-.24.754.034 1.028.464.463 1.34.107 1.34-.545a.766.766 0 0 0-1.374-.483Zm-4.516.958c-.755.593.007 1.699.858 1.244.7-.374.343-1.462-.486-1.48-.038 0-.206.105-.372.236Zm-16.348 10.37c-.312.396-.3.677.044 1.02.268.267.349.28 1.668.28 1.32 0 1.4-.013 1.668-.28.353-.353.36-.751.016-1.073-.244-.229-.385-.25-1.712-.25-1.426 0-1.45.005-1.684.303Zm7.93-.124c-.174.122-.255.295-.253.544.003.743.316.88 2.002.88 1.26 0 1.347-.014 1.613-.28.353-.353.36-.751.016-1.073-.243-.228-.385-.25-1.694-.25-1.108 0-1.487.04-1.684.18Z"/>
  </mask>
  <path fill-rule="evenodd" clip-rule="evenodd" d="M27.836 31.627c-.488.283-.461.542.384 3.776.444 1.7.78 3.133.746 3.187-.033.053-.291.132-.574.174-1.059.159-2.73.617-2.912.8-.17.168-.195.79-.247 5.865l-.057 5.677-.63.23c-2.468.896-4.782 1.842-4.903 2.002-.108.143-.143 1.118-.143 3.939v3.748l.307.242c.302.236.387.24 4.31.208 3.809-.03 4.01-.043 4.165-.255.253-.346.206-.936-.093-1.145-.216-.152-.764-.178-3.67-.178h-3.414v-5.578l2.494-.926c15.259-5.665 31.838-9.995 47.625-12.439 1.045-.161 1.968-.294 2.052-.294.372 0-.19 3.57-.87 5.52-.865 2.481-1.63 3.613-4.287 6.332-2.845 2.913-4.376 4.886-5.219 6.727l-.301.658h-6.904c-7.66 0-7.415-.024-7.411.722.004.91-.257.88 7.887.88 7.057 0 7.223-.004 7.51-.23.161-.126.33-.397.374-.6.16-.744 1.09-2.35 2.103-3.635.831-1.054 1.943-2.282 3.63-4.007 2.405-2.46 3.294-3.845 4.181-6.513.693-2.085 1.031-4.068 1.031-6.051 0-.931-.03-1.092-.244-1.306-.216-.215-.327-.235-.946-.17-1.183.123-5.829.864-8.672 1.382l-2.694.492-4.038-2.333c-2.22-1.283-4.216-2.418-4.434-2.522-.37-.176-.575-.175-2.958.008-1.408.109-3.27.26-4.136.335l-1.577.138-.107-.346c-1.21-3.912-1.383-4.375-1.674-4.507-.2-.091-1.246-.134-3.276-.134h-2.98l-.282.281c-.155.155-.28.374-.278.487.002.113.304 1.262.672 2.553.452 1.59.626 2.37.54 2.42-.07.039-.462.105-.872.146l-.745.075-.835-2.78c-.59-1.965-.906-2.84-1.074-2.982-.214-.18-.547-.2-3.292-.197-1.92.003-3.132.049-3.262.124Zm6.19 3.764.695 2.288-.358.06c-.196.033-1.054.164-1.905.29-.852.128-1.611.254-1.689.281-.083.03-.185-.12-.252-.374-.062-.233-.369-1.416-.683-2.629l-.57-2.204h4.067l.695 2.288Zm9.114-.517c.3.942.533 1.724.52 1.738-.014.013-.915.12-2.004.238l-1.979.213-.22-.749c-.12-.412-.359-1.239-.53-1.837a39.43 39.43 0 0 0-.363-1.234c-.044-.115.37-.139 1.988-.114l2.043.031.545 1.714Zm10.943 2.99c.404.227.735.446.735.487 0 .042-1.329.3-2.953.575-9.88 1.668-18.696 3.629-24.482 5.445l-.544.171v-3.846l1.462-.304c5.12-1.064 11.114-1.802 22.79-2.807 2.095-.18 2.182-.173 2.992.28Zm4.487 2.591c1.138.654 1.391.843 1.221.912-.117.047-1.22.299-2.45.558-6.841 1.444-15.343 3.698-22.828 6.052-2.501.787-6.837 2.223-7.473 2.476-.187.074-.201-.07-.201-2.09v-2.17l1.92-.588c5.83-1.783 13.698-3.475 25.371-5.456a520.97 520.97 0 0 0 2.965-.508c.022-.006.686.36 1.475.814Zm-.046 7.083c-.509.192-.648.87-.259 1.259.533.532 1.526-.054 1.289-.763-.127-.381-.658-.637-1.03-.496Zm-4.965 1.333c-.255.323-.24.754.034 1.028.464.463 1.34.107 1.34-.545a.766.766 0 0 0-1.374-.483Zm-4.516.958c-.755.593.007 1.699.858 1.244.7-.374.343-1.462-.486-1.48-.038 0-.206.105-.372.236Zm-16.348 10.37c-.312.396-.3.677.044 1.02.268.267.349.28 1.668.28 1.32 0 1.4-.013 1.668-.28.353-.353.36-.751.016-1.073-.244-.229-.385-.25-1.712-.25-1.426 0-1.45.005-1.684.303Zm7.93-.124c-.174.122-.255.295-.253.544.003.743.316.88 2.002.88 1.26 0 1.347-.014 1.613-.28.353-.353.36-.751.016-1.073-.243-.228-.385-.25-1.694-.25-1.108 0-1.487.04-1.684.18Z" fill="#fff"/>
  <path clip-rule="evenodd" d="M27.836 31.627c-.488.283-.461.542.384 3.776.444 1.7.78 3.133.746 3.187-.033.053-.291.132-.574.174-1.059.159-2.73.617-2.912.8-.17.168-.195.79-.247 5.865l-.057 5.677-.63.23c-2.468.896-4.782 1.842-4.903 2.002-.108.143-.143 1.118-.143 3.939v3.748l.307.242c.302.236.387.24 4.31.208 3.809-.03 4.01-.043 4.165-.255.253-.346.206-.936-.093-1.145-.216-.152-.764-.178-3.67-.178h-3.414v-5.578l2.494-.926c15.259-5.665 31.838-9.995 47.625-12.439 1.045-.161 1.968-.294 2.052-.294.372 0-.19 3.57-.87 5.52-.865 2.481-1.63 3.613-4.287 6.332-2.845 2.913-4.376 4.886-5.219 6.727l-.301.658h-6.904c-7.66 0-7.415-.024-7.411.722.004.91-.257.88 7.887.88 7.057 0 7.223-.004 7.51-.23.161-.126.33-.397.374-.6.16-.744 1.09-2.35 2.103-3.635.831-1.054 1.943-2.282 3.63-4.007 2.405-2.46 3.294-3.845 4.181-6.513.693-2.085 1.031-4.068 1.031-6.051 0-.931-.03-1.092-.244-1.306-.216-.215-.327-.235-.946-.17-1.183.123-5.829.864-8.672 1.382l-2.694.492-4.038-2.333c-2.22-1.283-4.216-2.418-4.434-2.522-.37-.176-.575-.175-2.958.008-1.408.109-3.27.26-4.136.335l-1.577.138-.107-.346c-1.21-3.912-1.383-4.375-1.674-4.507-.2-.091-1.246-.134-3.276-.134h-2.98l-.282.281c-.155.155-.28.374-.278.487.002.113.304 1.262.672 2.553.452 1.59.626 2.37.54 2.42-.07.039-.462.105-.872.146l-.745.075-.835-2.78c-.59-1.965-.906-2.84-1.074-2.982-.214-.18-.547-.2-3.292-.197-1.92.003-3.132.049-3.262.124Zm6.19 3.764.695 2.288-.358.06c-.196.033-1.054.164-1.905.29-.852.128-1.611.254-1.689.281-.083.03-.185-.12-.252-.374-.062-.233-.369-1.416-.683-2.629l-.57-2.204h4.067l.695 2.288Zm9.114-.517c.3.942.533 1.724.52 1.738-.014.013-.915.12-2.004.238l-1.979.213-.22-.749c-.12-.412-.359-1.239-.53-1.837a39.43 39.43 0 0 0-.363-1.234c-.044-.115.37-.139 1.988-.114l2.043.031.545 1.714Zm10.943 2.99c.404.227.735.446.735.487 0 .042-1.329.3-2.953.575-9.88 1.668-18.696 3.629-24.482 5.445l-.544.171v-3.846l1.462-.304c5.12-1.064 11.114-1.802 22.79-2.807 2.095-.18 2.182-.173 2.992.28Zm4.487 2.591c1.138.654 1.391.843 1.221.912-.117.047-1.22.299-2.45.558-6.841 1.444-15.343 3.698-22.828 6.052-2.501.787-6.837 2.223-7.473 2.476-.187.074-.201-.07-.201-2.09v-2.17l1.92-.588c5.83-1.783 13.698-3.475 25.371-5.456a520.97 520.97 0 0 0 2.965-.508c.022-.006.686.36 1.475.814Zm-.046 7.083c-.509.192-.648.87-.259 1.259.533.532 1.526-.054 1.289-.763-.127-.381-.658-.637-1.03-.496Zm-4.965 1.333c-.255.323-.24.754.034 1.028.464.463 1.34.107 1.34-.545a.766.766 0 0 0-1.374-.483Zm-4.516.958c-.755.593.007 1.699.858 1.244.7-.374.343-1.462-.486-1.48-.038 0-.206.105-.372.236Zm-16.348 10.37c-.312.396-.3.677.044 1.02.268.267.349.28 1.668.28 1.32 0 1.4-.013 1.668-.28.353-.353.36-.751.016-1.073-.244-.229-.385-.25-1.712-.25-1.426 0-1.45.005-1.684.303Zm7.93-.124c-.174.122-.255.295-.253.544.003.743.316.88 2.002.88 1.26 0 1.347-.014 1.613-.28.353-.353.36-.751.016-1.073-.243-.228-.385-.25-1.694-.25-1.108 0-1.487.04-1.684.18Z" stroke="#fff" stroke-width=".3" mask="url(#b)"/>
  <defs>
    <linearGradient id="a" x1="48" y1="0" x2="48" y2="96" gradientUnits="userSpaceOnUse">
      <stop stop-color="#089208"/>
      <stop offset="1" stop-color="#004900"/>
    </linearGradient>
  </defs>
</svg>