<svg width="96" height="96" fill="none" xmlns="http://www.w3.org/2000/svg">
  <rect width="96" height="96" rx="7.5" fill="url(#a)"/>
  <mask id="b" maskUnits="userSpaceOnUse" x="17" y="27.5" width="62" height="39" fill="#000">
    <path fill="#fff" d="M17 27.5h62v39H17z"/>
    <path fill-rule="evenodd" clip-rule="evenodd" d="M23.202 28.66c-.484.215-.978.768-1.115 1.247-.175.608-.154 17.63.021 17.96.326.61.983.73 1.451.261l.288-.288V30.368h36.212v8.622c0 6.33.037 8.689.137 8.877.325.61.983.73 1.45.261.243-.242.288-.4.288-.996v-.709l5.772.001c3.505 0 5.938.047 6.196.118.595.166 1.142.561 1.592 1.152.63.824.608.839-1.201.839-1.53 0-1.598.01-1.875.288-.274.273-.288.355-.288 1.715 0 1.805.125 2.232.875 2.981.683.683 1.196.875 2.332.875h.778v4.22h-2.411l-.363-.733c-2.166-4.372-8.46-4.37-10.627.003-.24.483-.426.724-.543.702-.153-.03-.186-.555-.237-3.808-.064-4.141-.048-4.055-.787-4.203-.315-.063-.432-.018-.731.281l-.357.356v7.401H40.617l-.244-.55c-1.038-2.348-3.664-3.793-6.233-3.432-1.854.26-3.72 1.609-4.497 3.25l-.347.733-2.695-.03-2.695-.03v-2.109l2.249-.031 2.25-.032.24-.306c.318-.404.305-.774-.041-1.177l-.283-.329h-9.768l-.283.33c-.347.402-.36.772-.04 1.178l.243.309h3.499l.002 1.2c.003.914.055 1.315.218 1.67.504 1.098.92 1.22 4.178 1.226l2.58.005.143.899c.787 4.944 6.92 6.78 10.272 3.077.669-.74 1.333-2.085 1.425-2.888.036-.308.089-.679.118-.824l.053-.264h21.041l.183.967c.239 1.261.677 2.164 1.463 3.013 1.281 1.384 2.497 1.916 4.38 1.916s3.1-.532 4.38-1.916c.805-.869 1.218-1.71 1.455-2.97l.188-.993 1.687-.038 1.687-.037.287-.335.288-.335-.034-5.7c-.034-5.547-.042-5.718-.29-6.324-.578-1.409-1.902-2.63-3.219-2.967-.395-.101-.632-.234-.699-.39-.055-.132-.42-1.52-.808-3.086l-.707-2.848.366-.308.366-.308-.048-1.24c-.04-1.065-.092-1.325-.367-1.858-.379-.73-1.065-1.45-1.685-1.763-.829-.42-1.575-.488-5.304-.488h-3.617l-.04-1.377c-.034-1.232-.068-1.42-.32-1.772a2.237 2.237 0 0 0-.761-.613c-.462-.21-1.185-.218-18.88-.216-15.115.002-18.462.03-18.75.16Zm46.783 5.956c.5.274.969.907 1.053 1.425l.068.421h-9.172v-2.121l3.838.035c3.391.031 3.882.06 4.213.24ZM45.27 41.821l-4.314 4.305-2.255-2.247c-1.436-1.43-2.372-2.276-2.578-2.325-.66-.16-1.287.603-1.022 1.242.071.172 1.33 1.507 2.799 2.967 2.429 2.414 2.705 2.653 3.067 2.653.368 0 .76-.362 5.175-4.777 4.35-4.351 4.777-4.812 4.777-5.162a.98.98 0 0 0-.954-.96c-.343 0-.799.418-4.695 4.304Zm25.782-.407c.403 1.627.732 2.998.73 3.046-.001.049-2.217.088-4.925.088h-4.922v-6.094h8.384l.733 2.96Zm5.064 10.049v1.054h-.746c-.65 0-.786-.04-1.055-.309-.269-.269-.309-.405-.309-1.054v-.746h2.11v1.055Zm-55.793-.595c-.422.422-.442.857-.055 1.244l.288.288h6.324c3.478 0 6.41-.033 6.514-.073.213-.082.532-.636.532-.926 0-.105-.154-.345-.342-.533l-.343-.343H20.665l-.343.343Zm22.312 3.759c-.402.164-.656.636-.565 1.05.162.736-.152.708 7.988.708h7.407l.243-.31c.32-.405.307-.775-.04-1.178l-.283-.329-7.246-.023c-4.054-.013-7.36.023-7.504.082Zm-6.775 1.935c1.017.166 2.208 1.096 2.741 2.14.524 1.027.526 2.534.006 3.558-1.55 3.054-5.782 3.06-7.283.011-.347-.704-.385-.885-.381-1.782.004-.843.054-1.102.326-1.663.575-1.189 1.77-2.113 3.001-2.324.533-.091.696-.085 1.59.06Zm32.817-.05c1.802.333 3.177 1.777 3.401 3.57.151 1.21-.506 2.805-1.473 3.57-2.364 1.873-5.761.716-6.509-2.216-.565-2.218.972-4.54 3.257-4.921.34-.057.621-.11.626-.117.004-.007.318.044.698.114Zm-34.722 2.326c-1.439.903-1.113 3.037.538 3.532.938.28 2.138-.428 2.314-1.367.253-1.347-.452-2.291-1.764-2.365-.556-.031-.788.012-1.088.2Zm33.154-.028c-1.163.573-1.33 2.376-.297 3.19.806.633 1.852.57 2.578-.155.672-.673.747-1.71.18-2.507-.49-.687-1.638-.933-2.46-.528Z"/>
  </mask>
  <path fill-rule="evenodd" clip-rule="evenodd" d="M23.202 28.66c-.484.215-.978.768-1.115 1.247-.175.608-.154 17.63.021 17.96.326.61.983.73 1.451.261l.288-.288V30.368h36.212v8.622c0 6.33.037 8.689.137 8.877.325.61.983.73 1.45.261.243-.242.288-.4.288-.996v-.709l5.772.001c3.505 0 5.938.047 6.196.118.595.166 1.142.561 1.592 1.152.63.824.608.839-1.201.839-1.53 0-1.598.01-1.875.288-.274.273-.288.355-.288 1.715 0 1.805.125 2.232.875 2.981.683.683 1.196.875 2.332.875h.778v4.22h-2.411l-.363-.733c-2.166-4.372-8.46-4.37-10.627.003-.24.483-.426.724-.543.702-.153-.03-.186-.555-.237-3.808-.064-4.141-.048-4.055-.787-4.203-.315-.063-.432-.018-.731.281l-.357.356v7.401H40.617l-.244-.55c-1.038-2.348-3.664-3.793-6.233-3.432-1.854.26-3.72 1.609-4.497 3.25l-.347.733-2.695-.03-2.695-.03v-2.109l2.249-.031 2.25-.032.24-.306c.318-.404.305-.774-.041-1.177l-.283-.329h-9.768l-.283.33c-.347.402-.36.772-.04 1.178l.243.309h3.499l.002 1.2c.003.914.055 1.315.218 1.67.504 1.098.92 1.22 4.178 1.226l2.58.005.143.899c.787 4.944 6.92 6.78 10.272 3.077.669-.74 1.333-2.085 1.425-2.888.036-.308.089-.679.118-.824l.053-.264h21.041l.183.967c.239 1.261.677 2.164 1.463 3.013 1.281 1.384 2.497 1.916 4.38 1.916s3.1-.532 4.38-1.916c.805-.869 1.218-1.71 1.455-2.97l.188-.993 1.687-.038 1.687-.037.287-.335.288-.335-.034-5.7c-.034-5.547-.042-5.718-.29-6.324-.578-1.409-1.902-2.63-3.219-2.967-.395-.101-.632-.234-.699-.39-.055-.132-.42-1.52-.808-3.086l-.707-2.848.366-.308.366-.308-.048-1.24c-.04-1.065-.092-1.325-.367-1.858-.379-.73-1.065-1.45-1.685-1.763-.829-.42-1.575-.488-5.304-.488h-3.617l-.04-1.377c-.034-1.232-.068-1.42-.32-1.772a2.237 2.237 0 0 0-.761-.613c-.462-.21-1.185-.218-18.88-.216-15.115.002-18.462.03-18.75.16Zm46.783 5.956c.5.274.969.907 1.053 1.425l.068.421h-9.172v-2.121l3.838.035c3.391.031 3.882.06 4.213.24ZM45.27 41.821l-4.314 4.305-2.255-2.247c-1.436-1.43-2.372-2.276-2.578-2.325-.66-.16-1.287.603-1.022 1.242.071.172 1.33 1.507 2.799 2.967 2.429 2.414 2.705 2.653 3.067 2.653.368 0 .76-.362 5.175-4.777 4.35-4.351 4.777-4.812 4.777-5.162a.98.98 0 0 0-.954-.96c-.343 0-.799.418-4.695 4.304Zm25.782-.407c.403 1.627.732 2.998.73 3.046-.001.049-2.217.088-4.925.088h-4.922v-6.094h8.384l.733 2.96Zm5.064 10.049v1.054h-.746c-.65 0-.786-.04-1.055-.309-.269-.269-.309-.405-.309-1.054v-.746h2.11v1.055Zm-55.793-.595c-.422.422-.442.857-.055 1.244l.288.288h6.324c3.478 0 6.41-.033 6.514-.073.213-.082.532-.636.532-.926 0-.105-.154-.345-.342-.533l-.343-.343H20.665l-.343.343Zm22.312 3.759c-.402.164-.656.636-.565 1.05.162.736-.152.708 7.988.708h7.407l.243-.31c.32-.405.307-.775-.04-1.178l-.283-.329-7.246-.023c-4.054-.013-7.36.023-7.504.082Zm-6.775 1.935c1.017.166 2.208 1.096 2.741 2.14.524 1.027.526 2.534.006 3.558-1.55 3.054-5.782 3.06-7.283.011-.347-.704-.385-.885-.381-1.782.004-.843.054-1.102.326-1.663.575-1.189 1.77-2.113 3.001-2.324.533-.091.696-.085 1.59.06Zm32.817-.05c1.802.333 3.177 1.777 3.401 3.57.151 1.21-.506 2.805-1.473 3.57-2.364 1.873-5.761.716-6.509-2.216-.565-2.218.972-4.54 3.257-4.921.34-.057.621-.11.626-.117.004-.007.318.044.698.114Zm-34.722 2.326c-1.439.903-1.113 3.037.538 3.532.938.28 2.138-.428 2.314-1.367.253-1.347-.452-2.291-1.764-2.365-.556-.031-.788.012-1.088.2Zm33.154-.028c-1.163.573-1.33 2.376-.297 3.19.806.633 1.852.57 2.578-.155.672-.673.747-1.71.18-2.507-.49-.687-1.638-.933-2.46-.528Z" fill="#fff"/>
  <path clip-rule="evenodd" d="M23.202 28.66c-.484.215-.978.768-1.115 1.247-.175.608-.154 17.63.021 17.96.326.61.983.73 1.451.261l.288-.288V30.368h36.212v8.622c0 6.33.037 8.689.137 8.877.325.61.983.73 1.45.261.243-.242.288-.4.288-.996v-.709l5.772.001c3.505 0 5.938.047 6.196.118.595.166 1.142.561 1.592 1.152.63.824.608.839-1.201.839-1.53 0-1.598.01-1.875.288-.274.273-.288.355-.288 1.715 0 1.805.125 2.232.875 2.981.683.683 1.196.875 2.332.875h.778v4.22h-2.411l-.363-.733c-2.166-4.372-8.46-4.37-10.627.003-.24.483-.426.724-.543.702-.153-.03-.186-.555-.237-3.808-.064-4.141-.048-4.055-.787-4.203-.315-.063-.432-.018-.731.281l-.357.356v7.401H40.617l-.244-.55c-1.038-2.348-3.664-3.793-6.233-3.432-1.854.26-3.72 1.609-4.497 3.25l-.347.733-2.695-.03-2.695-.03v-2.109l2.249-.031 2.25-.032.24-.306c.318-.404.305-.774-.041-1.177l-.283-.329h-9.768l-.283.33c-.347.402-.36.772-.04 1.178l.243.309h3.499l.002 1.2c.003.914.055 1.315.218 1.67.504 1.098.92 1.22 4.178 1.226l2.58.005.143.899c.787 4.944 6.92 6.78 10.272 3.077.669-.74 1.333-2.085 1.425-2.888.036-.308.089-.679.118-.824l.053-.264h21.041l.183.967c.239 1.261.677 2.164 1.463 3.013 1.281 1.384 2.497 1.916 4.38 1.916s3.1-.532 4.38-1.916c.805-.869 1.218-1.71 1.455-2.97l.188-.993 1.687-.038 1.687-.037.287-.335.288-.335-.034-5.7c-.034-5.547-.042-5.718-.29-6.324-.578-1.409-1.902-2.63-3.219-2.967-.395-.101-.632-.234-.699-.39-.055-.132-.42-1.52-.808-3.086l-.707-2.848.366-.308.366-.308-.048-1.24c-.04-1.065-.092-1.325-.367-1.858-.379-.73-1.065-1.45-1.685-1.763-.829-.42-1.575-.488-5.304-.488h-3.617l-.04-1.377c-.034-1.232-.068-1.42-.32-1.772a2.237 2.237 0 0 0-.761-.613c-.462-.21-1.185-.218-18.88-.216-15.115.002-18.462.03-18.75.16Zm46.783 5.956c.5.274.969.907 1.053 1.425l.068.421h-9.172v-2.121l3.838.035c3.391.031 3.882.06 4.213.24ZM45.27 41.821l-4.314 4.305-2.255-2.247c-1.436-1.43-2.372-2.276-2.578-2.325-.66-.16-1.287.603-1.022 1.242.071.172 1.33 1.507 2.799 2.967 2.429 2.414 2.705 2.653 3.067 2.653.368 0 .76-.362 5.175-4.777 4.35-4.351 4.777-4.812 4.777-5.162a.98.98 0 0 0-.954-.96c-.343 0-.799.418-4.695 4.304Zm25.782-.407c.403 1.627.732 2.998.73 3.046-.001.049-2.217.088-4.925.088h-4.922v-6.094h8.384l.733 2.96Zm5.064 10.049v1.054h-.746c-.65 0-.786-.04-1.055-.309-.269-.269-.309-.405-.309-1.054v-.746h2.11v1.055Zm-55.793-.595c-.422.422-.442.857-.055 1.244l.288.288h6.324c3.478 0 6.41-.033 6.514-.073.213-.082.532-.636.532-.926 0-.105-.154-.345-.342-.533l-.343-.343H20.665l-.343.343Zm22.312 3.759c-.402.164-.656.636-.565 1.05.162.736-.152.708 7.988.708h7.407l.243-.31c.32-.405.307-.775-.04-1.178l-.283-.329-7.246-.023c-4.054-.013-7.36.023-7.504.082Zm-6.775 1.935c1.017.166 2.208 1.096 2.741 2.14.524 1.027.526 2.534.006 3.558-1.55 3.054-5.782 3.06-7.283.011-.347-.704-.385-.885-.381-1.782.004-.843.054-1.102.326-1.663.575-1.189 1.77-2.113 3.001-2.324.533-.091.696-.085 1.59.06Zm32.817-.05c1.802.333 3.177 1.777 3.401 3.57.151 1.21-.506 2.805-1.473 3.57-2.364 1.873-5.761.716-6.509-2.216-.565-2.218.972-4.54 3.257-4.921.34-.057.621-.11.626-.117.004-.007.318.044.698.114Zm-34.722 2.326c-1.439.903-1.113 3.037.538 3.532.938.28 2.138-.428 2.314-1.367.253-1.347-.452-2.291-1.764-2.365-.556-.031-.788.012-1.088.2Zm33.154-.028c-1.163.573-1.33 2.376-.297 3.19.806.633 1.852.57 2.578-.155.672-.673.747-1.71.18-2.507-.49-.687-1.638-.933-2.46-.528Z" stroke="#fff" stroke-width=".15" mask="url(#b)"/>
  <defs>
    <linearGradient id="a" x1="48" y1="0" x2="48" y2="96" gradientUnits="userSpaceOnUse">
      <stop stop-color="#089208"/>
      <stop offset="1" stop-color="#004900"/>
    </linearGradient>
  </defs>
</svg>