<svg width="96" height="96" fill="none" xmlns="http://www.w3.org/2000/svg">
  <rect width="96" height="96" rx="7.5" fill="url(#a)"/>
  <g clip-path="url(#b)">
    <path fill-rule="evenodd" clip-rule="evenodd" d="M39.054 33.393c-6.722 2.6-8.712 3.399-8.848 3.555l-.176.201V64.406h-.787c-.766 0-.793.006-1.015.229a.754.754 0 0 0 0 1.105l.228.229H67.55l.263-.28c.21-.222.263-.342.263-.598 0-.176-.019-.301-.042-.278-.024.024-.144-.058-.268-.182-.218-.218-.249-.225-1.012-.225h-.787V37.15l-.176-.201c-.136-.156-2.126-.955-8.87-3.56-5.256-2.03-8.792-3.355-8.945-3.353-.138.002-4.154 1.513-8.923 3.358Zm3.32.457a9694.59 9694.59 0 0 1-8.184 3.169l-2.597 1.003v2.947H42.53l.002-1.973c.002-2.13.01-2.172.443-2.393.24-.123 9.808-.123 10.049 0 .433.221.44.262.442 2.393l.002 1.973H64.405v-1.485c0-.816-.013-1.484-.028-1.484-.016 0-3.713-1.424-8.216-3.164-4.503-1.74-8.19-3.161-8.194-3.158-.004.004-2.52.981-5.593 2.172Zm1.719 5.712v1.407h7.812V38.156h-7.812v1.407Zm-12.5 13.907v10.937H33.546V46.113l.228-.228.229-.229h27.992l.229.229.228.228v18.293H64.405V42.531H31.593V53.47Zm3.515 2.343v8.594H37.843v-6.574l.228-.229.229-.228h4.23V50.8l.229-.228.228-.228h10.024l.228.228.229.228V57.376h4.231l.228.228.228.229v6.574H60.89V47.22H35.108v8.593Zm8.985-1.171v2.734h7.812V51.906H48.78v.553c0 .507-.019.572-.228.781-.18.18-.298.229-.553.229-.254 0-.374-.05-.553-.229-.21-.209-.228-.274-.228-.78v-.554h-3.125v2.735Zm-4.688 7.03v2.735H47.218v-5.468h-3.125v.552c0 .507-.02.572-.229.782-.179.179-.298.228-.552.228-.255 0-.374-.05-.553-.228-.21-.21-.229-.275-.229-.782v-.553h-3.125v2.735Zm9.375 0v2.735H56.593v-5.468h-3.125v.552c0 .507-.02.572-.229.782-.179.179-.298.228-.552.228-.255 0-.374-.05-.553-.228-.21-.21-.229-.275-.229-.782v-.553H48.78v2.735Zm-20.76 3.517c0 .193.016.272.034.175a1.115 1.115 0 0 0 0-.351c-.018-.097-.034-.018-.034.175Z" fill="#fff"/>
  </g>
  <defs>
    <linearGradient id="a" x1="48" y1="0" x2="48" y2="96" gradientUnits="userSpaceOnUse">
      <stop stop-color="#089208"/>
      <stop offset="1" stop-color="#004900"/>
    </linearGradient>
    <clipPath id="b">
      <path fill="#fff" d="M28 28h40v40H28z"/>
    </clipPath>
  </defs>
</svg>